<?xml version="1.0" encoding="UTF-8" standalone="no"?>
<svg
   xmlns:dc="http://purl.org/dc/elements/1.1/"
   xmlns:cc="http://creativecommons.org/ns#"
   xmlns:rdf="http://www.w3.org/1999/02/22-rdf-syntax-ns#"
   xmlns:svg="http://www.w3.org/2000/svg"
   xmlns="http://www.w3.org/2000/svg"
   xmlns:xlink="http://www.w3.org/1999/xlink"
   id="svg4883"
   version="1.1"
   viewBox="0 0 196.1669 32.536369"
   height="32.536369mm"
   width="196.1669mm">
  <defs
     id="defs4877">
    <linearGradient
       y2="938.28333"
       x2="1900.8054"
       y1="1016.282"
       x1="1909.3163"
       gradientTransform="matrix(1.3055038,0,0,1.3077157,-485.17335,-320.599)"
       gradientUnits="userSpaceOnUse"
       id="linearGradient5707"
       xlink:href="#linearGradient5567" />
    <linearGradient
       id="linearGradient5567">
      <stop
         id="stop5569"
         offset="0"
         style="stop-color:#014e8b;stop-opacity:1" />
      <stop
         style="stop-color:#0284ea;stop-opacity:1"
         offset="0.55822778"
         id="stop5579" />
      <stop
         style="stop-color:#0284ea;stop-opacity:1"
         offset="0.71181244"
         id="stop5571" />
      <stop
         id="stop5573"
         offset="1"
         style="stop-color:#8acafc;stop-opacity:1" />
    </linearGradient>
  </defs>
  <metadata
     id="metadata4880">
    <rdf:RDF>
      <cc:Work
         rdf:about="">
        <dc:format>image/svg+xml</dc:format>
        <dc:type
           rdf:resource="http://purl.org/dc/dcmitype/StillImage" />
        <dc:title></dc:title>
      </cc:Work>
    </rdf:RDF>
  </metadata>
  <g
     transform="translate(-31.928554,-62.497372)"
     id="layer1">
    <g
       style="display:inline"
       transform="matrix(0.33232579,0,0,0.33299628,560.69094,-71.315029)"
       id="g5673">
      <g
         style="display:inline;opacity:0.98999999;enable-background:new"
         id="g5675"
         transform="matrix(0.82883593,0.08676409,-0.08676409,0.82883593,-2936.3579,-523.10818)">
        <path
           id="path5677"
           d="m 2305,885.40625 -7.9688,0.8125 -0.5,0.0625 -3.2812,0.34375 -2.0938,2.5625 -6.8124,8.34375 -2.125,2.59375 0.3437,3.28125 0.4063,3.9375 -2.7813,0.28125 -6.5313,0.65625 -0.625,6.5625 c -0.046,0.50206 -0.095,1.18121 -0.125,1.96875 l -0.031,0.5625 0.062,0.5625 0.1875,1.8125 0.2188,1.96875 0.031,0.46875 0.125,0.5 c 0.1694,0.73303 0.3467,1.35374 0.5312,1.96875 -1.1546,-1.68408 -2.352,-3.3252 -3.7812,-4.78125 -0.031,-0.032 -0.063,-0.0619 -0.094,-0.0937 -3.031,-3.14274 -6.7037,-5.61708 -10.75,-7.28125 v 0.0312 c -0.3227,-0.13277 -0.8947,-0.373 -1.5937,-0.625 -0.085,-0.0308 -0.096,-0.0622 -0.1875,-0.0937 v 0.0312 c -1.1403,-0.42336 -2.335,-0.82531 -3.625,-1.125 -1.2301,-0.28573 -2.5642,-0.5358 -4,-0.6875 -2.7629,-0.29193 -5.5395,-0.22595 -8.3125,0.0625 -5.6073,0.5831 -10.8412,2.19304 -15.375,5 v -0.0312 c -0.047,0.0283 -0.078,0.0652 -0.125,0.0937 -0.9564,0.58057 -1.7689,1.2214 -2.5937,1.84375 -0.011,0.009 -0.02,0.0227 -0.031,0.0312 0.2476,-0.14299 0.344,-0.20716 -0.1875,0.0937 l -0.8438,0.46875 -0.7187,0.6875 c -0.1628,0.15475 -0.1625,0.16263 -0.25,0.25 -0.098,0.0983 -0.2751,0.27531 -0.2813,0.28125 -0.9857,0.88665 -1.8733,1.78875 -2.6874,2.71875 -0.071,0.0807 -0.1493,0.16921 -0.2188,0.25 -0.081,0.09 -0.2313,0.22983 -0.25,0.25 -3.9435,4.258 -7.7481,9.18377 -11.4375,14.6875 -0.013,-0.0293 -0.018,-0.0645 -0.031,-0.0937 -0.015,-0.0348 -0.047,-0.059 -0.062,-0.0937 0,-0.008 0,-0.0228 0,-0.0312 -1.962,-4.45877 -4.5908,-8.4643 -8.0938,-11.65625 -0.028,-0.026 -0.066,-0.0367 -0.094,-0.0625 -3.4295,-3.18221 -7.5956,-5.37701 -12.0312,-6.5 -0.055,-0.0138 -0.1017,-0.049 -0.1562,-0.0625 v 0.0312 c -4.3155,-1.14736 -8.893,-1.45418 -13.5626,-0.96875 -4.299,0.44703 -8.2919,1.54079 -11.875,3.34375 l -2.125,-20.4375 -0.6874,-6.71875 -6.75,-0.4375 c -0.3153,-0.0204 -1.0147,-0.0823 -1.875,-0.0312 -0.791,0.0476 -1.191,0.12441 -1.4688,0.15625 -0.017,0.002 -0.077,-0.002 -0.094,0 -0.5601,-0.004 -1.0218,-0.0382 -2,0.0625 h -0.031 c -1.2757,0.133 -1.9224,0.30581 -2.75,0.46875 v 0.0312 c -0.7521,0.0816 -1.4634,0.1118 -2.5312,0.40625 l -6.5313,1.8125 0.6875,6.75 2.0625,19.96875 c -0.3809,5.6544 -2.4028,11.73589 -5.25,18.09375 -1.3503,-2.14505 -2.8868,-4.16605 -4.6563,-5.96875 -0.03,-0.0319 -0.063,-0.062 -0.094,-0.0937 -1.7149,-1.77886 -3.6265,-3.35022 -5.7187,-4.6875 -0.3884,-0.24816 -0.8865,-0.59198 -1.5626,-0.96875 -1.6442,-0.91631 -3.3517,-1.6266 -5.0312,-2.21875 -0.01,-0.003 -0.022,0.003 -0.031,0 -0.064,-0.0225 -0.1236,-0.0716 -0.1876,-0.0937 v 0.0312 c -1.1324,-0.41934 -2.3136,-0.82765 -3.5937,-1.125 -1.2302,-0.28578 -2.5642,-0.53581 -4,-0.6875 -2.7629,-0.29195 -5.5396,-0.22595 -8.3125,0.0625 -2.7725,0.28831 -5.495,0.80483 -8.1562,1.65625 -1.3781,0.44092 -2.652,0.96848 -3.8126,1.5 -1.2395,0.56766 -2.3615,1.19558 -3.4062,1.84375 v -0.0312 c -0.049,0.0293 -0.077,0.0644 -0.125,0.0937 -0.7652,0.46583 -1.4589,0.93511 -2.0625,1.375 -0.027,0.02 -0.067,0.0426 -0.094,0.0625 -0.2512,0.18057 -0.4333,0.36032 -0.6563,0.53125 -6e-4,6e-4 -0.03,-10e-4 -0.031,0 -0.033,0.0246 -0.2733,0.18435 -0.625,0.21875 -0.7348,0.0719 -1.872,-0.0145 -1.9687,-0.0312 -2.5648,-0.44549 -9.1612,-1.55643 -13.7813,-1.9375 l -0.1562,-0.0312 h -0.1875 c -1.087,-0.0421 -2.0267,0.0183 -2.75,0.0937 -0.4069,0.0425 -0.807,0.11347 -1.2187,0.15625 -4.1588,0.43245 -8.0941,1.54834 -11.5626,3.4375 l -0.2812,-1.28125 -6.2812,-0.125 c -0.9583,-0.0203 -1.8086,0.057 -2.5313,0.125 -0.089,0.008 -0.2282,-0.009 -0.3125,0 -0.5875,-0.003 -1.1037,-0.049 -1.875,0.0312 -1.1787,0.12277 -1.9817,0.34225 -2.6562,0.5 -0.04,0.009 -0.1178,0.0223 -0.1563,0.0312 -0.5875,0.0798 -1.1243,0.11413 -1.8437,0.28125 l -6.875,1.59375 0.7187,7.03125 3.7187,36.0625 0.5313,4.8125 c -0.01,2.47489 -0.017,4.94705 -7.25,9 -0.22,0.0659 -0.4284,0.11018 -0.8125,0.21875 -0.5779,0.1073 -1.0066,0.19869 -1.375,0.25 -0.082,-0.3643 -0.093,-0.20159 -0.1562,-0.8125 l -6.3126,-61.09375 -1.5937,-15.15625 -0.6875,-6.71875 -6.75,-0.4375 c -0.3154,-0.0204 -1.0146,-0.0823 -1.875,-0.0312 -0.7899,0.0475 -1.1597,0.12437 -1.4375,0.15625 -0.018,0.002 -0.077,-0.002 -0.094,0 -0.5483,-0.005 -0.9941,-0.0369 -1.9688,0.0625 h -0.031 c -1.2759,0.13308 -1.9584,0.30062 -2.8126,0.46875 v 0.0312 c -0.7522,0.0816 -1.4638,0.11199 -2.5312,0.40625 l -6.5312,1.8125 0.6874,6.71875 2.3438,22.8125 c -0.5661,6.47148 -1.6932,15.14719 -3.2812,23.78125 l -1.875,-18.15625 -0.6876,-6.71875 -6.75,-0.4375 c -0.3152,-0.0204 -1.0146,-0.0823 -1.875,-0.0312 -0.8077,0.0486 -1.2222,0.12529 -1.5,0.15625 -0.011,10e-4 -0.051,-10e-4 -0.062,0 -0.5582,-0.005 -1.0452,-0.0348 -1.9688,0.0625 -0.9838,0.10274 -1.405,0.22614 -1.9375,0.34375 -0.1974,0.0436 -0.4979,0.0815 -0.7187,0.125 -0.7896,0.0799 -1.5061,0.11135 -2.6876,0.4375 l -6.5312,1.8125 0.6875,6.75 5.0937,49.125 c -1.4769,0.2814 -2.9848,0.54703 -4.9374,0.75 -2.6406,0.27453 -4.921,0.2458 -6.8126,0.0312 -1.458,-0.23352 -2.4083,-0.64819 -3.25,-1.21875 -0.6378,-0.5466 -1.3555,-1.39795 -2.0312,-2.90625 0,-0.007 0,-0.0241 0,-0.0312 -0.01,-0.0154 -0.024,-0.0157 -0.031,-0.0312 -0.7272,-1.70957 -1.4412,-4.55157 -1.8438,-8.4375 l -3.6875,-35.46875 -0.6875,-6.71875 -6.75,-0.4375 c -0.3153,-0.0204 -1.0148,-0.0822 -1.875,-0.0312 -0.8069,0.0485 -1.1909,0.12524 -1.4688,0.15625 -0.012,0.001 -0.051,-10e-4 -0.062,0 -0.5649,-0.005 -1.0618,-0.0363 -2,0.0625 -0.9925,0.10365 -1.4458,0.22312 -2,0.34375 -0.536,0.0557 -1.0883,0.16114 -1.6563,0.25 -0.085,0.0134 -0.1621,0.0162 -0.25,0.0312 l -21.9375,2.28125 c -0.01,-1.20398 -0.1362,-2.78239 -0.031,-3.4375 0.052,-0.2441 0.1164,-0.51571 0.1562,-0.65625 0.214,-0.75638 0.4544,-1.09362 0.4062,-1.03125 0.099,-0.13114 -0.066,-0.0608 0.2813,-0.1875 l 0.1563,-0.0625 0.1874,-0.0625 c 0.4091,-0.17092 0.8415,-0.32924 1.4063,-0.46875 0.2839,-0.0701 0.643,-0.13662 0.9375,-0.1875 0.3223,-0.0558 0.6398,-0.0875 1,-0.125 0.9572,-0.0995 1.7486,-0.12453 2.4062,-0.0625 l 0.25,0.0312 h 0.25 c 1.0051,0.0297 1.7565,0.12286 2.3126,0.1875 l 7.5,0.84375 1.3124,-7.40625 c 0.1915,-1.08798 0.3251,-2.28895 0.4376,-3.5625 h 0.031 c 0.01,-0.077 -0.01,-0.14074 0,-0.21875 0.012,-0.1477 0.053,-0.2548 0.062,-0.40625 h -0.031 c 0.1715,-1.53465 0.2168,-2.92022 0.2188,-4.375 l 0.031,-6.96875 -6.875,-0.96875 c -1.3262,-0.18963 -2.7684,-0.25383 -4.3124,-0.28125 v -0.0312 c -0.1237,-0.009 -0.2514,0.007 -0.375,0 -0.045,-4.5e-4 -0.08,3.4e-4 -0.125,0 -1.8562,-0.10025 -3.7254,-0.0398 -5.625,0.15625 -0.011,10e-4 -0.021,-10e-4 -0.031,0 -8.7646,0.91737 -16.5891,4.26947 -21.2813,10.78125 l -0.031,0.0312 -0.031,0.0312 c -4.0735,5.79796 -5.2368,13.05672 -4.75,21 l -2.9063,0.28125 -1.125,0.125 -1.375,0.125 -5.1563,0.53125 -9,0.9375 -1.1874,-11.4375 -0.8126,-7.96875 -7.9687,0.8125 -0.5313,0.0625 -3.25,0.34375 -2.0937,2.53125 -6.875,8.375 -2.125,2.5625 0.3437,3.34375 0.4063,3.875 c -0.9748,0.0883 -2.1076,0.23095 -2.6563,0.28125 -2.3292,0.21317 -5.1869,0.58106 -5.1562,0.59375 7e-4,3e-4 -0.1292,9e-5 -0.125,0 -0.7258,-0.007 -0.557,-0.08 -2.25,0.0937 h -0.031 c -0.3975,0.0418 -0.7954,0.0805 -1.2188,0.125 -4.1512,0.43176 -8.0674,1.5548 -11.5312,3.4375 l -0.2813,-1.25 -6.3125,-0.125 c -0.9489,-0.0205 -1.7504,0.0578 -2.4688,0.125 -0.1,0.009 -0.2498,-0.01 -0.3437,0 -0.589,-0.003 -1.0959,-0.0494 -1.875,0.0312 -0.8207,0.0859 -1.3189,0.22192 -1.875,0.34375 -0.2863,0.0627 -0.733,0.10155 -0.9687,0.15625 -0.5864,0.0796 -1.1226,0.14502 -1.8438,0.3125 l -6.875,1.59375 0.7188,7.03125 2.875,27.75 c -0.019,0.0761 -0.044,0.24944 -0.063,0.3125 -0.7533,2.62316 -2.0608,5.9361 -3.625,9.0937 l -1.6874,-16.43745 c -0.9152,-8.83113 -4.202,-16.66353 -10.6876,-21.40625 -0.024,-0.0177 -0.038,-0.0449 -0.062,-0.0625 v 0.0312 c -6.4052,-4.72985 -14.678,-5.9496 -23.8126,-5 -3.6772,0.38237 -7.2137,1.07614 -10.5937,1.96875 -0.06,0.0157 -0.128,0.0154 -0.1875,0.0312 v 0.0312 c -3.3017,0.79847 -6.206,1.68377 -8.7812,2.78125 l -5.4063,2.3125 0.5937,5.875 c 0.1794,1.73345 0.5254,3.47349 1.0313,5.25 l 0.062,0.21875 0.062,0.21875 c 0.587,1.69365 1.176,3.25465 2.4375,5.0625 l 3.7188,5.3125 5.9687,-2.53125 c 1.6069,-0.68487 3.6352,-1.38502 6,-2 l 0.125,-0.0312 0.094,-0.0312 c 2.0819,-0.60747 4.6176,-1.07194 7.5313,-1.375 3.6578,-0.38022 5.0562,0.26488 5.8437,0.90625 l 0.031,0.0312 0.062,0.0312 c 0.2053,0.16169 0.5575,0.66967 0.875,1.28125 -1.4297,0.0801 -2.7185,0.0842 -4.3125,0.25 -4.3969,0.45725 -8.5971,1.41318 -12.5,2.96875 h -0.031 l -0.031,0.0312 c -3.8751,1.5753 -7.3413,3.776 -10.2188,6.5625 -0.01,0.0101 -0.021,0.0211 -0.031,0.0312 -2.8428,2.74332 -5.1184,6.1535 -6.5625,10.0001 v 0.062 l -0.031,0.031 c -1.455,4.0336 -1.7815,8.3058 -1.3437,12.5313 0.8824,8.5157 5.0023,16.3531 12.125,20.3124 l 0.031,0.031 h 0.031 c 6.6384,3.6147 14.5308,4.5282 23.2188,3.625 h 0.031 c 1.0246,-0.1075 2.0104,-0.2335 3.0312,-0.375 1.0641,-0.1476 2.1696,-0.3487 3.2188,-0.5314 2.1079,-0.3671 4.2453,-0.7923 6.4688,-1.3436 2.1178,-0.5252 4.0486,-1.0271 5.8437,-1.5314 1.3959,-0.3896 2.6167,-0.74 3.7813,-1.0936 l -0.031,-0.062 c 4.5575,-1.1171 8.4094,-3.2114 11.6563,-5.9375 l 0.5,4.5937 6.75,0.4063 c 1.2461,0.077 1.9591,-0.04 2.75,-0.125 v 0.031 c 0.755,-0.011 1.2546,0.064 2.6874,-0.094 0.045,0 0.05,-0.026 0.094,-0.031 0.9615,-0.1059 1.5378,-0.2459 2.125,-0.375 0.2779,-0.023 0.573,-0.032 1.2188,-0.125 h 0.031 c 0.8469,-0.1245 1.5032,-0.2949 1.9062,-0.4063 l 6.5,-1.8125 -0.6874,-6.7189 -3.3438,-32.3749 c -0.7439,-7.17904 0.4873,-11.13637 1.5625,-12.53125 0.1642,-0.21295 0.304,-0.40643 0.4687,-0.59375 0.8711,-0.87104 0.3788,-0.37342 0.1563,-0.15625 0.015,-0.0159 0.017,-0.0469 0.031,-0.0625 -0.1047,0.10875 0.1733,-0.18224 0.031,-0.0312 h 0.031 v -0.0312 c 3.0614,-3.30868 3.8517,-3.15619 9.2813,-3.625 l 0.1563,-0.0312 h 0.1562 c 2.7558,-0.34547 5.5197,-0.63328 8.3438,-0.9375 l 3.4374,33.37495 c 0.7312,7.0555 3.4216,13.623 8.9063,17.5626 l 0.094,0.062 0.094,0.063 c 4.8948,3.2967 11.018,4.5098 17.125,3.875 1.0222,-0.1065 2.0135,-0.2577 3,-0.4376 0.072,-0.013 0.147,-0.018 0.2188,-0.031 v -0.031 c 2.5621,-0.4161 4.9532,-1.0684 7.25,-1.875 h 0.5624 l 1.4688,-0.625 c 2.4645,-1.0264 4.7136,-2.3233 6.75,-3.8438 l 0.25,2.2188 6.75,0.4374 c 1.2464,0.077 1.9588,-0.04 2.75,-0.125 0.1978,-0.021 0.4844,-0.01 0.6875,-0.031 0.5527,-5e-4 1.02,0.039 1.8437,-0.031 h 0.094 0.062 c 1.2849,-0.133 1.9875,-0.3427 2.75,-0.5 0.7678,-0.083 1.4919,-0.1422 2.5625,-0.4376 l 6.5312,-1.8124 -0.7187,-6.7188 -5,-48.15625 9.3437,-0.96875 h 0.063 0.062 l 4.6876,-0.5625 2.1874,21.125 c 0.6837,6.5989 2.0546,12.2492 4.5938,17.0937 2.3085,4.4042 5.3243,8.2533 9.2812,11.0313 l 0.125,0.094 0.125,0.063 c 3.8384,2.4963 8.2285,4.014 12.7813,4.5312 h 0.031 c 2.0651,0.2241 4.1651,0.3248 6.3124,0.3125 h 0.031 c 2.1358,-0.015 4.2842,-0.1517 6.4375,-0.375 4.3135,-0.4485 8.5086,-1.2217 12.5625,-2.375 0.068,-0.018 0.1202,-0.045 0.1875,-0.062 1.6836,-0.4427 3.278,-0.8925 4.75,-1.3438 l 0.062,-0.031 0.062,-0.031 c 1.5659,-0.5042 2.8835,-0.9286 4.2188,-1.375 l 0.094,-0.031 0.094,-0.062 c 0.236,-0.086 0.6257,-0.2152 1.125,-0.4062 l 0.063,-0.031 h 0.094 c -0.6066,0.2444 -0.4686,0.1963 0.4063,-0.1875 5.6312,-2.4746 9.0523,-6.8246 11.5937,-11.4688 0.2619,0.566 0.399,1.1715 0.7187,1.7188 l 0.031,0.062 0.031,0.062 c 0.412,0.6767 0.8615,1.2889 1.2812,1.8438 0.3362,0.4445 0.7679,1.0131 1.375,1.6562 1.0562,1.1194 2.208,2.0689 3.4375,2.875 l 0.25,0.1562 0.2187,0.125 c 1.8942,1.0661 3.9353,1.8248 6,2.2188 h 0.031 c 0.4927,0.094 1.0843,0.182 1.7187,0.25 0.045,0 0.079,0 0.125,0 0.082,0.01 0.1351,0.024 0.2188,0.031 v -0.031 c 2.2411,0.2703 4.4957,0.328 6.75,0.094 1.4062,-0.1462 3.0471,-0.3796 4.8438,-0.7813 v 0.031 c 0.013,0 0.018,-0.028 0.031,-0.031 1.8739,-0.4113 3.6082,-1.0075 5.2188,-1.75 v 0.031 c 0.078,-0.033 0.1713,-0.091 0.25,-0.125 0.027,-0.012 0.066,-0.019 0.094,-0.031 0.5526,-0.2396 1.163,-0.5816 1.75,-0.875 l 6.5,0.375 c 1.2182,0.075 1.9515,-0.01 2.75,-0.094 0.2088,-0.022 0.504,-0.01 0.7187,-0.031 0.5024,0.012 0.9194,0.053 1.9688,-0.062 0.045,0 0.05,-0.026 0.094,-0.031 0.8431,-0.093 1.3164,-0.1976 1.8437,-0.3126 0.043,-0.01 0.1135,0.01 0.1563,0 0.2794,-0.025 0.6308,-0.054 1.3437,-0.1562 l 0.031,-0.031 c 0.8473,-0.1246 1.4711,-0.2946 1.875,-0.4063 l 6.5312,-1.7813 -0.6875,-6.75 -3.375,-32.37495 c -0.744,-7.17897 0.4873,-11.13637 1.5625,-12.53125 1.6325,-2.11788 3.4724,-3.18471 7.4062,-3.59375 0.4144,-0.043 0.7997,-0.0912 1.125,-0.125 0.1383,-0.0143 0.3238,-0.006 0.625,0 0.4776,0.0247 2.2563,0.16546 3.4063,0.25 -0.01,0.0398 -0.024,0.0533 -0.031,0.0937 -0.8623,4.89851 -1.0506,10.03039 -0.5,15.34375 0.5506,5.31338 1.8012,10.33498 3.6563,14.96875 1.8957,4.73521 4.5208,8.99057 7.9063,12.53125 l 0.031,0.0312 0.062,0.0625 c 3.491,3.5283 7.7432,6.2533 12.5,8 l 0.062,0.031 0.062,0.031 c 0.6656,0.2301 1.3051,0.429 1.9063,0.5938 v -0.031 c 1.251,0.343 2.5899,0.6418 3.9687,0.8437 2.0258,0.2969 4.0192,0.4024 6.0313,0.375 1.3452,-0.017 2.7305,-0.1008 4.1562,-0.25 1.4249,-0.148 2.8123,-0.3668 4.125,-0.625 4.0087,-0.7887 7.7971,-2.1441 11.1875,-4.2187 h 0.031 l 0.031,-0.031 c 3.225,-2.0173 6.0532,-4.5186 8.375,-7.43745 0.7474,-0.93946 1.4781,-1.94428 2.1562,-3.03125 0.011,-0.0167 0.021,-0.0149 0.031,-0.0312 0.8247,-1.29961 1.0846,-1.54521 1.875,-2.875 0.6138,-1.03273 0.9503,-2.39016 1.25,-3.59375 l 0.094,0.0312 c -0.1355,0.40378 -0.059,0.20313 0.125,-0.3125 0.6418,-1.79937 3.2597,-6.84104 5.875,-11.8125 l 1.9376,18.6875 0.5937,5.53125 5.375,1.40625 c 2.8642,0.73796 6.1092,1.20456 9.8437,1.53125 0.071,0.01 0.1159,0.025 0.1876,0.031 1.0748,0.1096 2.0938,0.1746 2.9687,0.2188 1.9947,0.1002 4.0985,0.1184 6.2813,0 1.1242,-0.062 2.1564,-0.1494 3.125,-0.25 0.9728,-0.1013 1.9519,-0.26044 2.9374,-0.4375 0.094,-0.0169 0.1873,-0.0136 0.2813,-0.0312 v -0.0312 c 11.2913,-1.73771 20.9212,-6.46208 27.25,-14.5 0.8128,-1.03229 1.4776,-2.10702 2.1563,-3.1875 -0.01,0.0104 0.072,-0.097 0.2187,-0.28125 l 0.031,-0.0312 c 2.4038,-3.05194 5.2813,-7.51053 8.25,-12.3125 0.059,0.15123 0.096,0.31833 0.1562,0.46875 1.8957,4.73534 4.5209,8.99064 7.9062,12.53125 l 0.031,0.0312 0.062,0.0625 c 3.4909,3.52837 7.7433,6.2533 12.5,8 l 0.062,0.0312 0.094,0.0312 c 3.1263,1.08122 6.4414,1.65692 9.875,1.78125 2.1078,0.0766 4.1413,-0.0403 6.1563,-0.25 5.5734,-0.57954 10.7903,-2.07676 15.3125,-4.84375 h 0.031 l 0.031,-0.0312 c 4.2746,-2.67396 7.869,-6.20753 10.5,-10.40625 0.01,-0.0125 0.023,-0.0188 0.031,-0.0312 0.014,-0.022 0.017,-0.0405 0.031,-0.0625 0.8903,-1.39344 1.4609,-2.68027 2.0312,-3.9375 0.01,-0.0198 0.022,-0.0427 0.031,-0.0625 2.4092,-3.7139 6.323,-8.07449 10.2813,-12.5 l 0.3437,3.46875 c 0.3665,3.53767 1.1609,6.8195 2.5625,9.8125 0.2411,0.51466 0.588,1.26444 1.1562,2.1875 v 0.0312 c 0.8664,1.40708 1.9196,2.73031 3.1563,3.90625 0.7313,0.69555 1.4127,1.2033 2,1.625 l 0.094,0.0625 0.094,0.0937 c 2.4191,1.62917 5.209,2.80579 8.1562,3.4375 0.7508,0.16065 1.4798,0.28293 2.2188,0.375 1.054,0.13028 1.7879,0.13791 2.2188,0.15625 h 0.031 c 0.455,0.0185 1.2016,0.0666 2.25,0.0312 0.8277,-0.0265 1.5776,-0.0823 2.2812,-0.15625 4.5355,-0.47158 8.7041,-1.39083 12.5,-3 l 6.0313,-2.5625 -1.3125,-6.4375 c -0.5833,-2.83839 -1.3765,-5.53514 -2.3438,-8.0625 l -3.0624,-8.03125 -7.7813,3.65625 c -1.1198,0.52411 -2.6712,0.99607 -4.8125,1.21875 -0.3699,0.0383 -0.813,0.0208 -1.2188,0.0312 -0.08,-0.28511 -0.1247,-0.31114 -0.2187,-1.21875 l -3.4375,-33.0625 9.0625,-0.9375 6.5313,-0.6875 0.5937,-6.53125 c 0.023,-0.23956 0.1044,-0.93552 0.062,-1.84375 v -0.0312 c -0.045,-0.9053 -0.1172,-1.29893 -0.125,-1.375 -0.023,-0.69179 -0.038,-1.427 -0.094,-1.96875 -0.054,-0.52135 -0.2012,-1.18425 -0.3124,-1.8125 -0.029,-0.27675 -0.1444,-0.76906 -0.1876,-1.09375 -0.077,-0.57745 -0.1039,-1.06112 -0.375,-1.9375 l -1.9374,-6.25 -6.5313,0.65625 -9.0625,0.9375 -1.1875,-11.4375 -0.8125,-7.96875 z m -23.6562,45.1875 c -0.3811,0.81303 -0.5848,1.47572 -1.0313,2.3125 -0.3282,0.61505 -0.8256,1.27623 -1.1875,1.90625 -0.2891,-0.80197 -0.5488,-1.62656 -0.875,-2.40625 -0.021,-0.0525 -0.041,-0.10389 -0.062,-0.15625 -0.1785,-0.44091 -0.4643,-0.81723 -0.6563,-1.25 l 3.8126,-0.40625 z m -34.1876,2.5 c 2.5719,0.12068 3.8955,0.99339 5.4063,2.75 l 0.031,0.0312 0.031,0.0312 c 2.3141,2.62666 4.1899,7.02452 4.9062,13.9375 0.7162,6.91321 -0.2103,11.60778 -1.9374,14.65625 l -0.031,0.0312 -0.031,0.0312 c -1.5058,2.73331 -3.0244,3.88694 -7.7187,4.375 -4.6467,0.48312 -6.5465,-0.3234 -8.625,-2.65625 -0.021,-0.0238 -0.041,-0.0384 -0.062,-0.0625 -0.8545,-1.00484 -1.6078,-2.22604 -2.2812,-3.6875 -0.2272,-0.49288 -0.4686,-0.99861 -0.6876,-1.59375 -0.8415,-2.28787 -1.4829,-5.20571 -1.8437,-8.6875 -0.1447,-1.39626 -0.2062,-2.74898 -0.2187,-4.15625 0,-0.0759 3e-4,0.003 0,-0.0625 0,-0.62726 -0.028,-0.94122 -0.031,-0.59375 v -0.0625 -0.0312 c 0,-0.0205 0,-0.0112 0,-0.0312 0,-0.0401 0,-0.0243 0,-0.0625 0.01,-0.38582 0.029,-0.78358 0.062,-1.375 v -0.0312 c 0.01,-0.15968 0.039,-0.40123 0.062,-0.6875 h -0.031 c 0.01,-0.10073 0.034,-0.24946 0.031,-0.25 0.049,-0.55612 0.1223,-1.13882 0.2187,-1.75 0.1637,-0.52483 0.2609,-1.19798 0.375,-1.96875 0.086,-0.33054 0.1612,-0.63453 0.2813,-1 l 0.031,-0.0312 v -0.0312 c 0.073,-0.22543 0.1403,-0.4617 0.25,-0.75 h 0.031 c 0.059,-0.14942 0.093,-0.31949 0.1562,-0.46875 -0.069,0.15787 0.077,-0.13874 0.031,-0.0312 -0.1826,0.42997 -0.1108,0.23914 0.062,-0.15625 0.072,-0.16474 -0.1,0.24934 0.031,-0.0625 0.1842,-0.4218 0.3607,-0.77088 0.5,-1.03125 0.016,-0.0275 0.047,-0.0353 0.063,-0.0625 0,-0.006 0,-0.0254 0,-0.0312 1.5068,-2.61551 3.1704,-3.77775 7.625,-4.28125 l 0.25,-0.0312 c 1.1839,-0.12309 2.2052,-0.16523 3.0624,-0.125 z m -72.625,7.5625 c 4.489,-0.46671 5.7524,0.23857 7.2813,2.125 l 0.031,0.0625 0.031,0.0312 c 1.9297,2.31729 3.6394,6.41044 4.3125,12.90625 0.4179,4.03356 0.1483,7.17047 -0.5313,9.53125 v 0.0312 l -0.031,0.0625 c -0.7068,2.57621 -1.703,4.49902 -2.9375,5.96875 l -0.062,0.0625 -0.031,0.0625 c -1.2447,1.53771 -2.6321,2.61683 -4.5626,3.53125 h -0.031 l -0.031,0.0312 c -1.9674,0.95283 -4.1707,1.56052 -6.5938,1.8125 -1.7071,0.17749 -3.22,0.22875 -4.7188,0.25 l -2.375,-22.8125 c -0.3161,-3.05051 -0.046,-5.09768 0.375,-6.3125 0.01,-0.0151 0.026,-0.0162 0.031,-0.0312 0.01,-0.0148 -0.01,-0.048 0,-0.0625 0.6987,-1.8269 1.5108,-3.03593 2.2813,-3.84375 1.0691,-1.03412 2.1434,-1.74169 3.4062,-2.25 1.7619,-0.70913 3.1981,-1.0566 4.1562,-1.15625 z M 2103.6875,948 c 2.5719,0.12066 3.9265,0.99328 5.4375,2.75 l 0.031,0.0312 0.031,0.0312 c 2.314,2.62663 4.1899,7.02438 4.9063,13.9375 0.2629,2.53739 0.2913,4.78496 0.1562,6.71875 -0.2909,1.13189 -0.5708,2.26849 -0.7812,3.3125 -0.1586,0.78672 -0.3243,1.51119 -0.4063,2.40625 -0.289,0.79724 -0.5802,1.58817 -0.9375,2.21875 v 0.0312 l -0.031,0.0625 c -1.506,2.73334 -3.056,3.8557 -7.75,4.34375 -4.6464,0.48315 -6.5156,-0.32391 -8.5938,-2.65625 -0.021,-0.024 -0.041,-0.0381 -0.062,-0.0625 -0.8542,-1.00457 -1.6391,-2.19488 -2.3125,-3.65625 -0.2264,-0.49109 -0.4369,-1.02895 -0.6562,-1.625 -0.8417,-2.28823 -1.483,-5.17433 -1.8438,-8.65625 -0.1027,-0.99486 -0.1847,-1.82557 -0.2188,-2.5 -0.2801,-5.5647 0.6009,-9.4734 2.0626,-12.15625 0.01,-0.0138 0.023,-0.0175 0.031,-0.0312 0,-0.008 0,-0.0237 0,-0.0312 1.51,-2.63778 3.1717,-3.80451 7.625,-4.3125 l 0.2812,-0.0312 c 1.1841,-0.1231 2.174,-0.16522 3.0313,-0.125 z m -220.4063,24 1.5313,14.59375 c -1.045,8.37152 -4.8416,17.60125 -11.0937,20.37505 l -0.063,0.031 -0.094,0.031 c -0.8457,0.3958 -1.9887,0.7904 -3.3125,1.0313 -0.011,0 -0.02,0 -0.031,0 -0.5618,0.08 -1.0828,0.1442 -1.5,0.1875 -0.3705,0.038 -0.7983,0.022 -1.1876,0.031 -0.081,-0.2862 -0.1249,-0.3137 -0.2187,-1.2187 L 1863.875,974 l 9.0312,-0.9375 1.125,-0.125 1.125,-0.125 5.4063,-0.53125 z m -115.4687,37.0625 0.9687,9.4063 c -0.73,0.146 -1.472,0.2979 -2.375,0.4374 -1.1149,0.1724 -2.2523,0.324 -3.3437,0.4376 -1.609,0.1672 -3.1826,0.2148 -4.7813,0.1874 -1.0452,-0.082 -1.9921,-0.3103 -2.875,-0.625 -0.4627,-0.202 -0.7365,-0.398 -1.0937,-0.8124 -0.033,-0.057 -0.4229,-0.6944 -0.5937,-2.3438 -0.082,-0.7872 -0.042,-1.3241 0.062,-1.75 0.013,-0.05 0.059,-0.2036 0.125,-0.375 0.1832,-0.4715 0.3847,-0.7993 1.0626,-1.375 1.4167,-1.2032 4.4026,-2.5572 9.5624,-3.0938 0.9375,-0.097 2.1339,-0.08 3.2813,-0.094 z"
           style="color:#000000;font-style:normal;font-variant:normal;font-weight:normal;font-stretch:normal;font-size:medium;line-height:normal;font-family:Sans;-inkscape-font-specification:Sans;text-indent:0;text-align:start;text-decoration:none;text-decoration-line:none;letter-spacing:normal;word-spacing:normal;text-transform:none;writing-mode:lr-tb;direction:ltr;baseline-shift:baseline;text-anchor:start;display:inline;overflow:visible;visibility:visible;fill:#f6c423;fill-opacity:1;fill-rule:nonzero;stroke:none;stroke-width:16;marker:none;enable-background:accumulate" />
        <path
           id="path5679"
           d="m 2305.9375,884.34375 -7.9687,0.8125 -0.5313,0.0625 -3.2813,0.34375 -2.0624,2.5625 -6.8438,8.34375 -2.0938,2.59375 0.3438,3.28125 0.4062,3.9375 -2.8124,0.28125 -6.5313,0.6875 -0.5937,6.53125 c -0.047,0.50206 -0.095,1.18121 -0.125,1.96875 l -0.031,0.5625 0.062,0.5625 0.1875,1.8125 0.2187,1.96875 0.031,0.5 0.125,0.46875 c 0.1719,0.74368 0.3122,1.3769 0.5,2 -1.1553,-1.68548 -2.351,-3.35539 -3.7813,-4.8125 -0.03,-0.032 -0.063,-0.0619 -0.094,-0.0937 -3.0311,-3.14274 -6.6725,-5.58583 -10.7187,-7.25 -0.318,-0.1308 -0.9109,-0.3776 -1.5938,-0.625 -0.095,-0.0344 -0.1165,-0.0584 -0.2188,-0.0937 v 0.0312 c -1.1325,-0.41935 -2.3139,-0.82767 -3.5937,-1.125 -1.2301,-0.28573 -2.5642,-0.5358 -4,-0.6875 -2.7629,-0.29193 -5.5395,-0.22595 -8.3125,0.0625 -5.6073,0.5831 -10.8412,2.19304 -15.375,5 v -0.0312 c -0.047,0.0283 -0.078,0.0652 -0.125,0.0937 -0.9564,0.58057 -1.7689,1.2214 -2.5938,1.84375 -0.011,0.009 -0.02,0.0227 -0.031,0.0312 0.2476,-0.14299 0.344,-0.20716 -0.1875,0.0937 l -0.875,0.5 -0.7187,0.65625 c -0.1527,0.14508 -0.1324,0.164 -0.2188,0.25 -0.1094,0.10894 -0.306,0.27498 -0.3125,0.28125 l 0.031,0.0312 c -0.9744,0.87765 -1.8812,1.76742 -2.6876,2.6875 -0.075,0.0856 -0.1762,0.16429 -0.25,0.25 -0.073,0.0807 -0.2011,0.23105 -0.2187,0.25 -3.9524,4.26759 -7.7716,9.20002 -11.4687,14.71875 -0.017,-0.038 -0.014,-0.087 -0.031,-0.125 -0.015,-0.0348 -0.047,-0.059 -0.062,-0.0937 0,-0.008 0,-0.0228 0,-0.0312 -1.9587,-4.45133 -4.5995,-8.43566 -8.0938,-11.625 l 0.031,-0.0312 c -0.039,-0.0361 -0.086,-0.0579 -0.125,-0.0937 -3.4164,-3.15937 -7.5885,-5.34726 -12,-6.46875 -0.01,-0.003 -0.021,0.003 -0.031,0 -0.054,-0.0137 -0.102,-0.0491 -0.1562,-0.0625 v 0.0312 c -4.3068,-1.14084 -8.8724,-1.45307 -13.5312,-0.96875 -4.2916,0.44625 -8.2966,1.54656 -11.875,3.34375 l -2.125,-20.4375 -0.6876,-6.71875 -6.75,-0.4375 c -0.3152,-0.0204 -1.0146,-0.0823 -1.875,-0.0312 h -0.031 c -0.79,0.0475 -1.1597,0.12436 -1.4375,0.15625 -0.018,0.002 -0.077,-0.002 -0.094,0 -0.5692,-0.004 -1.0378,-0.0398 -2.0313,0.0625 -1.2757,0.133 -1.9224,0.30581 -2.75,0.46875 v 0.0312 c -0.7604,0.0819 -1.4814,0.13939 -2.5625,0.4375 l -6.5312,1.78125 0.7187,6.75 2.0625,19.96875 c -0.3809,5.6544 -2.4028,11.73589 -5.25,18.09375 -1.346,-2.13824 -2.8938,-4.13932 -4.6562,-5.9375 -0.037,-0.0372 -0.057,-0.0879 -0.094,-0.125 l -0.031,0.0312 c -1.7108,-1.77189 -3.602,-3.38576 -5.6876,-4.71875 -0.3883,-0.24816 -0.9176,-0.59198 -1.5937,-0.96875 -1.6439,-0.91611 -3.3209,-1.62668 -5,-2.21875 -0.01,-0.003 -0.022,0.003 -0.031,0 -0.064,-0.0226 -0.1232,-0.0715 -0.1874,-0.0937 v 0.0312 c -1.1324,-0.41926 -2.3139,-0.79644 -3.5938,-1.09375 -1.2209,-0.28363 -2.5765,-0.53552 -4,-0.6875 -0.011,-10e-4 -0.02,10e-4 -0.031,0 -2.7526,-0.28819 -5.5188,-0.22487 -8.2813,0.0625 -2.7725,0.28831 -5.495,0.77358 -8.1563,1.625 -1.378,0.44092 -2.6519,0.96848 -3.8124,1.5 -1.2396,0.56766 -2.3616,1.19558 -3.4063,1.84375 -0.038,0.0234 -0.088,0.0391 -0.125,0.0625 -0.7712,0.46873 -1.455,0.93231 -2.0625,1.375 -0.028,0.0201 -0.066,0.0425 -0.094,0.0625 -0.2511,0.18057 -0.4332,0.36032 -0.6562,0.53125 -6e-4,6e-4 -0.03,-10e-4 -0.031,0 -0.033,0.0246 -0.2734,0.18435 -0.625,0.21875 -0.7349,0.0719 -1.9034,-0.0145 -2,-0.0312 -2.5649,-0.44549 -9.13,-1.55643 -13.75,-1.9375 h -0.1563 l -0.1875,-0.0312 c -1.087,-0.0421 -2.0267,0.0496 -2.75,0.125 -0.4069,0.0425 -0.8382,0.0822 -1.25,0.125 -4.1587,0.43245 -8.0628,1.54834 -11.5312,3.4375 l -0.2813,-1.25 -6.3125,-0.15625 c -1.0763,-0.0228 -2.0441,0.0452 -2.8125,0.125 -0.5916,-0.003 -1.0955,-0.0186 -1.875,0.0625 -0.8195,0.0853 -1.2892,0.22239 -1.8437,0.34375 -0.2901,0.0635 -0.731,0.10107 -0.9688,0.15625 -0.5904,0.0799 -1.1508,0.14428 -1.875,0.3125 l -6.875,1.59375 0.75,7 3.7188,36.0625 0.5,5 c 0,2.41434 -0.1905,4.85741 -7.25,8.8125 -0.2108,0.0629 -0.3977,0.11896 -0.75,0.21875 -0.6095,0.11366 -1.0233,0.19651 -1.4063,0.25 -0.082,-0.3643 -0.093,-0.2016 -0.1563,-0.8125 l -6.3437,-61.09375 -1.5625,-15.15625 -0.6875,-6.71875 -6.75,-0.4375 c -0.3154,-0.0204 -1.0146,-0.0823 -1.875,-0.0312 -0.7909,0.0476 -1.1909,0.12442 -1.4687,0.15625 -0.018,0.002 -0.077,-0.002 -0.094,0 -0.5419,-0.005 -1.0053,-0.0358 -1.9688,0.0625 -1.2758,0.13308 -1.9583,0.30062 -2.8124,0.46875 v 0.0312 c -0.7523,0.0816 -1.4639,0.11199 -2.5313,0.40625 l -6.5313,1.8125 0.6876,6.75 2.3437,22.78125 c -0.5633,6.43953 -1.7062,15.06354 -3.2813,23.65625 l -1.875,-18.03125 -0.6874,-6.71875 -6.75,-0.4375 c -0.3153,-0.0204 -1.0147,-0.0823 -1.875,-0.0312 h -0.031 c -0.8071,0.0485 -1.191,0.12525 -1.4687,0.15625 -0.012,0.001 -0.051,-10e-4 -0.063,0 -0.556,-0.005 -1.0545,-0.0318 -1.9687,0.0625 -0.014,0.001 -0.017,-0.002 -0.031,0 -0.9589,0.10198 -1.4109,0.22746 -1.9374,0.34375 -0.1953,0.0431 -0.5004,0.082 -0.7188,0.125 -0.7898,0.0799 -1.5055,0.14247 -2.6875,0.46875 l -6.5313,1.78125 0.7188,6.75 5.0938,49.15625 c -1.4784,0.28187 -3.0136,0.54676 -4.9688,0.75 -2.6403,0.2745 -4.8898,0.24574 -6.7812,0.0312 -1.4413,-0.23082 -2.3844,-0.62755 -3.2188,-1.1875 -0.6492,-0.54339 -1.371,-1.42506 -2.0625,-2.96875 0,-0.007 0,-0.0241 0,-0.0312 -0.01,-0.0154 -0.024,-0.0157 -0.031,-0.0312 -0.7271,-1.70961 -1.4411,-4.55158 -1.8437,-8.4375 l -3.6875,-35.46875 -0.6875,-6.71875 -6.75,-0.4375 c -0.3153,-0.0204 -1.0148,-0.051 -1.875,0 -0.7908,0.0476 -1.1909,0.0932 -1.4687,0.125 -0.018,0.002 -0.077,-0.002 -0.094,0 -0.5581,-0.005 -1.0451,-0.0348 -1.9688,0.0625 -1.3492,0.14091 -1.876,0.30292 -2.7187,0.46875 -0.2974,0.0342 -0.6211,0.0759 -0.9375,0.125 h -0.125 c -0.2142,0.0347 -0.3919,0.0471 -0.625,0.0937 l -21.4692,2.2186 c -0.01,-1.14921 -0.1281,-2.63019 -0.031,-3.28125 0.069,-0.34006 0.1383,-0.63877 0.1875,-0.8125 0.2118,-0.74876 0.4168,-1.08427 0.375,-1.03125 0,0.002 0.034,-0.0344 0.031,-0.0312 0.042,-0.0746 -0.025,-0.0135 0.2812,-0.125 l 0.1562,-0.0937 0.1876,-0.0625 c 0.409,-0.17092 0.8414,-0.32924 1.4062,-0.46875 v 0.0312 c 0.2839,-0.0701 0.6118,-0.16787 0.9062,-0.21875 h 0.031 c 0.3223,-0.0558 0.6398,-0.0875 1,-0.125 0.9572,-0.0995 1.7174,-0.0933 2.375,-0.0312 h 0.2813 l 0.25,0.0312 c 1.005,0.0297 1.7564,0.0916 2.3124,0.15625 l 7.5,0.875 1.2813,-7.4375 c 0.1915,-1.08814 0.3563,-2.28873 0.4687,-3.5625 h 0.031 c 0.013,-0.0909 -0.012,-0.16055 0,-0.25 0.011,-0.13672 0.054,-0.23508 0.062,-0.375 h -0.031 c 0.1714,-1.53465 0.2167,-2.92022 0.2187,-4.375 v -6.9375 l -6.875,-1 c -1.3167,-0.18826 -2.7504,-0.25304 -4.2813,-0.28125 -0.01,-7.4e-4 -0.021,7.3e-4 -0.031,0 -0.179,-0.003 -0.3169,-0.0299 -0.5,-0.0312 v 0.0312 c -1.8561,-0.0982 -3.7249,-0.0724 -5.625,0.125 -8.7772,0.91271 -16.5835,4.26174 -21.2812,10.78125 l -0.031,0.0312 -0.031,0.0312 c -4.0732,5.79774 -5.2678,13.05708 -4.7812,21 l -2.875,0.28125 -1.125,0.125 -5.4062,0.5625 -1.125,0.125 -9,0.9375 -1.1876,-11.46875 -0.8437,-7.96875 -7.9375,0.8125 -0.5312,0.0625 -3.25,0.34375 -2.0938,2.53125 -6.875,8.375 -2.125,2.5625 0.3438,3.34375 0.4062,3.875 c -0.9748,0.0883 -2.1076,0.23095 -2.6562,0.28125 -2.3293,0.21317 -5.187,0.58106 -5.1563,0.59375 7e-4,3e-4 -0.1292,9e-5 -0.125,0 -0.7258,-0.007 -0.557,-0.08 -2.25,0.0937 h -0.031 c -0.3876,0.0408 -0.806,0.0817 -1.2187,0.125 -0.011,10e-4 -0.021,-10e-4 -0.031,0 -4.1362,0.43343 -8.0469,1.56252 -11.5,3.4375 l -0.2812,-1.25 -6.3125,-0.125 c -0.9622,-0.0208 -1.8071,0.0564 -2.5313,0.125 -0.089,0.008 -0.2281,-0.009 -0.3124,0 -0.5826,-0.002 -1.0777,-0.048 -1.8438,0.0312 h -0.031 c -0.8146,0.0853 -1.2902,0.22278 -1.8438,0.34375 -0.7634,0.0799 -1.7129,0.21338 -2.8125,0.46875 l -6.875,1.59375 0.7187,7.03125 2.875,27.71875 c -0.021,0.0854 -0.042,0.27429 -0.062,0.34375 -0.7531,2.62224 -2.0616,5.93708 -3.625,9.09385 l -1.6876,-16.4376 c -0.9134,-8.81484 -4.2256,-16.62963 -10.6874,-21.375 -0.01,-0.004 0.01,-0.0269 0,-0.0312 -0.03,-0.0226 -0.063,-0.0401 -0.094,-0.0625 -6.4003,-4.70869 -14.6943,-5.91669 -23.8125,-4.96875 -3.6771,0.38237 -7.1826,1.07621 -10.5625,1.96875 -0.06,0.0158 -0.1278,0.0153 -0.1875,0.0312 v 0.0312 c -3.3019,0.79844 -6.2063,1.68394 -8.7813,2.78125 l -5.4374,2.3125 0.625,5.875 c 0.1793,1.73348 0.5253,3.47344 1.0312,5.25 l 0.062,0.21875 0.062,0.21875 c 0.587,1.69365 1.1763,3.25484 2.4375,5.0625 l 3.7187,5.3125 5.9688,-2.53125 c 1.6067,-0.68484 3.6352,-1.38503 6,-2 l 0.125,-0.0312 0.094,-0.0312 c 2.0818,-0.60749 4.5864,-1.07203 7.5,-1.375 3.6577,-0.38028 5.0561,0.26486 5.8437,0.90625 l 0.062,0.0312 0.062,0.0625 c 0.2042,0.16078 0.5281,0.64487 0.8437,1.25 -1.425,0.0801 -2.6929,0.0848 -4.2812,0.25 -4.3969,0.45725 -8.5971,1.41318 -12.5,2.96875 h -0.031 l -0.031,0.0312 c -3.8751,1.5753 -7.3413,3.77609 -10.2187,6.5625 -0.011,0.0101 -0.021,0.0211 -0.031,0.0312 -2.8428,2.74334 -5.1184,6.1535 -6.5625,10 l -0.031,0.063 v 0.031 c -1.4551,4.0335 -1.7816,8.3057 -1.3438,12.5312 0.8824,8.5158 5.0023,16.3532 12.125,20.3126 l 0.031,0.031 h 0.031 c 6.6384,3.6147 14.5308,4.5282 23.2187,3.625 1.0246,-0.1076 2.0417,-0.2335 3.0626,-0.375 1.064,-0.1476 2.1695,-0.3176 3.2187,-0.5 2.1079,-0.3672 4.2453,-0.8236 6.4687,-1.375 2.1179,-0.5252 4.0487,-1.0271 5.8438,-1.5312 1.1765,-0.3285 2.1587,-0.6368 3.1562,-0.9376 0.186,-0.056 0.4108,-0.1006 0.5938,-0.1562 v -0.031 c 4.5467,-1.1189 8.4152,-3.2475 11.6562,-5.9688 l 0.4688,4.5938 6.7812,0.4062 c 1.2461,0.077 1.9593,-0.01 2.75,-0.094 0.1978,-0.021 0.4845,-0.01 0.6876,-0.031 0.5096,0.012 0.9338,0.055 2,-0.062 0.045,0 0.05,-0.026 0.094,-0.031 1.1151,-0.1228 1.7605,-0.2614 2.4375,-0.4062 0.052,-0.011 0.135,-0.02 0.1875,-0.031 0.2359,-0.022 0.3386,-0.01 0.7187,-0.063 h 0.031 c 0.8469,-0.1244 1.4719,-0.2948 1.875,-0.4062 l 6.5313,-1.7812 -0.6876,-6.75 -3.375,-32.3751 c -0.7438,-7.17902 0.4874,-11.13644 1.5626,-12.53125 0.1466,-0.19014 0.2897,-0.36075 0.4374,-0.53125 0.9296,-0.91217 0.4443,-0.46662 0.1876,-0.21875 0.018,-0.0203 0.044,-0.0428 0.062,-0.0625 -0.087,0.0909 0.1414,-0.14826 0.031,-0.0312 l 0.031,-0.0312 c 3.0613,-3.30869 3.8516,-3.15625 9.2812,-3.625 l 0.1562,-0.0312 h 0.1563 c 2.7456,-0.3442 5.4987,-0.63427 8.3125,-0.9375 l 3.4688,33.40625 c 0.7311,7.0554 3.4215,13.5917 8.9062,17.5312 l 0.094,0.063 0.094,0.094 c 4.8948,3.2968 11.018,4.4786 17.125,3.8437 1.0222,-0.1064 2.0135,-0.2576 3,-0.4374 0.072,-0.013 0.147,-0.018 0.2187,-0.031 v -0.031 c 2.5607,-0.4158 4.9232,-1.0689 7.2188,-1.875 h 0.5938 l 1.0624,-0.4687 0.4063,-0.1563 c 2.4789,-1.0322 4.7041,-2.3431 6.75,-3.875 l 0.2187,2.25 6.7813,0.4376 c 1.2464,0.077 1.9588,-0.04 2.75,-0.125 v 0.031 c 0.8573,-0.012 1.4001,0 2.5313,-0.094 h 0.062 0.094 c 1.2849,-0.1329 1.9562,-0.3426 2.7188,-0.5 0.7763,-0.083 1.5104,-0.1386 2.5937,-0.4374 l 6.5,-1.7813 -0.6875,-6.75 -5,-48.15625 9.3438,-0.96875 h 0.062 0.063 l 4.6874,-0.5625 2.1563,21.125 c 0.6836,6.5989 2.0545,12.2492 4.5937,17.0938 2.3085,4.4041 5.3556,8.2532 9.3126,11.0312 l 0.125,0.094 0.094,0.062 c 3.8383,2.4964 8.2597,4.0141 12.8125,4.5313 h 0.031 c 2.0652,0.2241 4.1652,0.3248 6.3126,0.3125 2.1357,-0.015 4.2841,-0.1517 6.4374,-0.375 h 0.2188 l 0.2188,-0.031 c 4.4895,-0.717 8.8918,-1.7016 13.125,-2.8126 v 0.063 l 0.094,-0.094 c 3.2859,-0.8648 6.4975,-1.818 9.4375,-2.8125 l 0.3438,-0.094 0.3124,-0.1563 c 5.6408,-2.4788 9.02,-6.847 11.5626,-11.5 0.266,0.5774 0.4239,1.192 0.75,1.75 l 0.031,0.062 0.031,0.062 c 0.4121,0.6767 0.8304,1.2889 1.25,1.8437 0.3362,0.4446 0.7992,1.0444 1.4063,1.6876 1.0562,1.1193 2.208,2.0689 3.4375,2.875 l 0.2188,0.125 0.25,0.1562 c 1.8941,1.0661 3.9352,1.7935 6,2.1875 0.4842,0.092 1.0971,0.151 1.7187,0.2187 v 0.031 c 0.052,0.01 0.1046,-0.01 0.1563,0 0.081,0.01 0.1363,0.024 0.2187,0.031 v -0.031 c 2.2315,0.267 4.5055,0.327 6.75,0.094 1.4062,-0.1461 3.0471,-0.3483 4.8437,-0.75 0.01,0 0.021,0 0.031,0 1.8778,-0.4114 3.6053,-1.0374 5.2187,-1.7812 v 0.031 c 0.078,-0.033 0.1714,-0.091 0.25,-0.125 0.028,-0.012 0.066,-0.019 0.094,-0.031 0.5526,-0.2396 1.163,-0.5816 1.75,-0.875 l 6.5,0.375 c 1.2153,0.075 1.9221,-0.01 2.7188,-0.094 0.2106,-0.022 0.502,-0.01 0.7187,-0.031 0.4966,0.012 0.9466,0.048 1.9687,-0.062 0.065,-0.01 0.056,0.01 0.125,0 v -0.031 c 0.8259,-0.093 1.3228,-0.1988 1.8438,-0.3124 0.034,-0.01 0.091,0.01 0.125,0 0.2795,-0.026 0.6457,-0.051 1.375,-0.1563 h 0.031 c 0.8474,-0.1245 1.4712,-0.2945 1.875,-0.4063 l 6.5313,-1.8124 -0.6875,-6.75 -3.375,-32.37505 c -0.744,-7.17892 0.4873,-11.10512 1.5625,-12.5 1.6273,-2.11106 3.4673,-3.21296 7.375,-3.625 0.011,-10e-4 0.02,10e-4 0.031,0 0.4024,-0.0418 0.8083,-0.0921 1.125,-0.125 0.1382,-0.0143 0.3237,-0.006 0.625,0 0.485,0.0253 2.2506,0.19606 3.4062,0.28125 -0.01,0.0277 -0.026,0.0345 -0.031,0.0625 -0.8624,4.89851 -1.0507,10.03036 -0.5,15.34375 0.5505,5.31336 1.8011,10.33499 3.6562,14.96875 1.8957,4.73523 4.5209,8.99057 7.9062,12.53125 l 0.031,0.0312 0.062,0.0625 c 3.4909,3.52823 7.7432,6.25335 12.5,8.00005 l 0.062,0.031 0.062,0.031 c 0.6656,0.2301 1.3051,0.429 1.9062,0.5937 1.2511,0.343 2.5588,0.6106 3.9376,0.8126 2.0257,0.2968 4.0504,0.4023 6.0624,0.375 1.3453,-0.017 2.7306,-0.1009 4.1563,-0.25 1.4249,-0.1481 2.8123,-0.3357 4.125,-0.5938 4.0087,-0.7888 7.7659,-2.1442 11.1563,-4.2188 l 0.062,-0.031 0.031,-0.031 c 3.225,-2.01741 6.0532,-4.51884 8.375,-7.4376 0.7423,-0.93309 1.4822,-1.92172 2.1563,-3 0.012,-0.0201 0.019,-0.0423 0.031,-0.0625 0.8105,-1.27427 1.0905,-1.55519 1.875,-2.875 0.6138,-1.0327 0.9503,-2.39015 1.25,-3.59375 l 0.094,0.0312 c -0.1233,0.3674 -0.053,0.13029 0.094,-0.28125 0.015,-0.0416 -0.017,0.0161 0,-0.0312 0.6466,-1.80589 3.2956,-6.81895 5.9063,-11.78125 l 1.9374,18.65625 0.5626,5.53125 5.4062,1.40625 c 2.8641,0.73786 6.1093,1.20455 9.8438,1.53125 0.071,0.006 0.1158,0.0251 0.1874,0.0312 1.0798,0.11059 2.0959,0.17476 2.9688,0.21875 1.9957,0.10052 4.0677,0.11828 6.25,0 h 0.031 c 1.1242,-0.0625 2.1564,-0.14939 3.125,-0.25 0.9608,-0.10026 1.9305,-0.26305 2.9063,-0.4375 0.1042,-0.0186 0.2082,-0.0117 0.3125,-0.0312 v -0.0312 c 11.278,-1.74156 20.8958,-6.46943 27.2188,-14.5 0.8137,-1.03348 1.5083,-2.10598 2.1874,-3.1875 0,0.005 0.073,-0.0971 0.2188,-0.28125 v -0.0312 c 2.4111,-3.06107 5.303,-7.52497 8.2812,-12.34375 0.062,0.1604 0.093,0.34051 0.1563,0.5 1.8957,4.73535 4.521,8.99064 7.9063,12.53125 l 0.031,0.0312 0.062,0.0625 c 3.4909,3.52843 7.7434,6.2533 12.5,8 l 0.062,0.0312 0.062,0.0312 c 3.126,1.08106 6.4724,1.65697 9.9063,1.78125 2.1048,0.0762 4.1377,-0.0393 6.1562,-0.25 5.5735,-0.5795 10.7904,-2.07683 15.3125,-4.84375 h 0.031 l 0.031,-0.0312 c 4.2689,-2.67038 7.8386,-6.21478 10.4688,-10.40625 0.023,-0.0374 0.07,-0.0562 0.094,-0.0937 l -0.031,-0.0312 c 0.88,-1.38085 1.4654,-2.65957 2.0313,-3.90625 0.01,-0.0106 0.024,-0.0206 0.031,-0.0312 0,-0.008 0,-0.0234 0,-0.0312 0,-0.005 0.028,0.005 0.031,0 0.01,-0.0106 0.024,-0.0206 0.031,-0.0312 2.4054,-3.69456 6.2871,-8.0416 10.2188,-12.4375 l 0.375,3.46875 c 0.3665,3.53767 1.1609,6.78827 2.5625,9.78125 0.2411,0.51469 0.5877,1.29535 1.1563,2.21875 0.8664,1.40721 1.9196,2.7304 3.1562,3.90625 0.7315,0.69569 1.3822,1.20378 1.9688,1.625 l 0.094,0.0937 0.125,0.0625 c 2.4193,1.62935 5.1781,2.80579 8.125,3.4375 0.751,0.16074 1.5106,0.28292 2.25,0.375 1.0611,0.13135 1.7994,0.13794 2.2187,0.15625 0.4567,0.0188 1.2355,0.0622 2.25,0.0312 h 0.031 c 0.8229,-0.0267 1.5763,-0.0823 2.2813,-0.15625 4.5354,-0.47155 8.7039,-1.39071 12.5,-3 l 6.0312,-2.5625 -1.3125,-6.4375 c -0.5833,-2.83828 -1.3766,-5.50388 -2.3437,-8.03125 l -3.0626,-8.03125 -7.7812,3.625 c -1.1131,0.52099 -2.6915,0.99461 -4.8125,1.21875 -0.013,10e-4 -0.018,-10e-4 -0.031,0 -0.3616,0.0366 -0.7922,0.0211 -1.1874,0.0312 -0.081,-0.28511 -0.1248,-0.31114 -0.2188,-1.21875 l -3.4375,-33.0625 9.0625,-0.9375 6.5,-0.6875 0.625,-6.53125 c 0.023,-0.23956 0.1044,-0.93552 0.062,-1.84375 v -0.0312 c -0.045,-0.9053 -0.1172,-1.26768 -0.125,-1.34375 -0.023,-0.70508 -0.037,-1.44967 -0.094,-2 -0.054,-0.52135 -0.2013,-1.18425 -0.3126,-1.8125 -0.029,-0.27675 -0.1443,-0.76906 -0.1874,-1.09375 -0.077,-0.57745 -0.104,-1.06112 -0.375,-1.9375 l -1.9376,-6.25 -6.5312,0.65625 -9.0625,0.9375 -1.1875,-11.4375 -0.8125,-7.96875 z m -23.6563,45.1875 c -0.3815,0.81427 -0.584,1.47437 -1.0312,2.3125 -0.3339,0.62576 -0.85,1.2963 -1.2188,1.9375 -0.2918,-0.80934 -0.5141,-1.65085 -0.8437,-2.4375 -0.017,-0.0438 -0.045,-0.0813 -0.062,-0.125 -0.1821,-0.45059 -0.4602,-0.83916 -0.6562,-1.28125 l 3.8124,-0.40625 z m -34.2187,2.5 c 2.5719,0.12068 3.9267,0.99339 5.4375,2.75 l 0.031,0.0312 0.031,0.0312 c 2.3141,2.62666 4.1899,7.02452 4.9063,13.9375 0.7161,6.91321 -0.2416,11.60773 -1.9688,14.65625 v 0.0312 l -0.031,0.0312 c -1.5059,2.73327 -3.0557,3.88695 -7.75,4.375 -4.6463,0.48306 -6.5156,-0.32398 -8.5938,-2.65625 -0.021,-0.024 -0.041,-0.0381 -0.062,-0.0625 -0.8544,-1.00477 -1.6391,-2.19493 -2.3125,-3.65625 -0.2271,-0.49288 -0.4373,-1.02986 -0.6562,-1.625 -0.8416,-2.28787 -1.483,-5.20571 -1.8438,-8.6875 -0.1447,-1.39626 -0.2062,-2.74898 -0.2188,-4.15625 0,-0.0759 4e-4,0.003 0,-0.0625 0,-0.62726 -0.028,-0.94122 -0.031,-0.59375 v -0.0312 -0.0312 c 0,-0.34071 1e-4,-0.32287 0,-0.53125 0.013,-0.29638 0.039,-0.55213 0.062,-0.96875 v -0.0312 c 0,-0.0797 -0.01,-0.23154 0,-0.34375 0.039,-0.31938 0.023,-0.20562 0.031,-0.34375 0.01,-0.10073 0.034,-0.24946 0.031,-0.25 0.049,-0.55612 0.1223,-1.13882 0.2188,-1.75 0.1743,-0.55925 0.2923,-1.28095 0.4062,-2.125 0.074,-0.27387 0.149,-0.53632 0.25,-0.84375 v -0.0312 l 0.031,-0.0312 c 0.073,-0.22543 0.1404,-0.4617 0.25,-0.75 0.01,-0.0207 0.023,-0.0417 0.031,-0.0625 0.052,-0.12964 0.1015,-0.27764 0.1563,-0.40625 -0.069,0.15787 0.077,-0.13874 0.031,-0.0312 -0.1826,0.42997 -0.1108,0.23914 0.062,-0.15625 0.012,-0.0265 0.02,-0.0365 0.031,-0.0625 0.186,-0.42612 0.3598,-0.77024 0.5,-1.03125 1.5205,-2.68395 3.1662,-3.86281 7.6562,-4.375 l 0.2812,-0.0312 c 1.184,-0.12309 2.174,-0.16523 3.0313,-0.125 z m -72.5937,7.5625 c 4.4889,-0.46671 5.7523,0.23857 7.2812,2.125 l 0.031,0.0625 0.031,0.0312 c 1.9297,2.31729 3.6394,6.44169 4.3125,12.9375 0.4179,4.03356 0.1483,7.13922 -0.5312,9.5 v 0.0312 l -0.031,0.0625 c -0.7068,2.57624 -1.7342,4.49905 -2.9687,5.96875 l -0.031,0.0625 -0.062,0.0625 c -1.2447,1.5377 -2.632,2.61681 -4.5625,3.53125 h -0.031 l -0.031,0.0312 c -1.9673,0.95281 -4.1394,1.56051 -6.5625,1.8125 -1.7094,0.17771 -3.2496,0.22892 -4.75,0.25 l -2.3437,-22.8125 c -0.3143,-3.03186 -0.042,-5.06362 0.375,-6.28125 0,-0.0101 0,-0.0211 0,-0.0312 0.7176,-1.90141 1.5503,-3.15052 2.3437,-3.96875 0.01,-0.009 0.023,-0.0223 0.031,-0.0312 1.0467,-0.99769 2.1077,-1.68997 3.3437,-2.1875 1.7619,-0.70913 3.1981,-1.0566 4.1563,-1.15625 z m -70.8438,7.34375 c 2.5719,0.12066 3.9265,0.99328 5.4375,2.75 l 0.031,0.0312 0.031,0.0312 c 2.314,2.62663 4.1899,7.02438 4.9062,13.9375 0.2618,2.52566 0.289,4.75976 0.1563,6.6875 -0.2942,1.14361 -0.6001,2.28991 -0.8125,3.34375 -0.1586,0.78672 -0.293,1.5112 -0.375,2.40625 -0.289,0.79727 -0.5803,1.58823 -0.9375,2.21875 l -0.031,0.0312 v 0.0625 c -1.5059,2.7333 -3.0559,3.85572 -7.75,4.34375 -4.6467,0.48321 -6.5465,-0.3233 -8.625,-2.65625 -0.021,-0.0238 -0.041,-0.0384 -0.062,-0.0625 -0.8542,-1.00442 -1.608,-2.19495 -2.2813,-3.65625 -0.2264,-0.49093 -0.4369,-1.0289 -0.6563,-1.625 -0.8416,-2.28817 -1.5142,-5.17435 -1.875,-8.65625 -0.1026,-0.99487 -0.1847,-1.82558 -0.2187,-2.5 -0.2802,-5.5647 0.6321,-9.4734 2.0937,-12.15625 0.01,-0.0138 0.024,-0.0175 0.031,-0.0312 0,-0.008 0,-0.0237 0,-0.0312 1.538,-2.68671 3.1998,-3.85095 7.8437,-4.34375 h 0.063 c 1.184,-0.1231 2.1739,-0.16522 3.0312,-0.125 z m -220.4062,24 1.5,14.5 c -1.0289,8.39501 -4.7882,17.6852 -11.0626,20.4687 l -0.094,0.031 -0.062,0.031 c -0.8457,0.3957 -1.9887,0.7903 -3.3125,1.0312 -0.011,0 -0.02,0 -0.031,0 -0.5634,0.08 -1.1128,0.1441 -1.5312,0.1875 -0.3656,0.038 -0.7725,0.022 -1.1562,0.031 -0.081,-0.2863 -0.125,-0.3138 -0.2188,-1.2188 l -3.4375,-33.0625 9.0313,-0.9375 1.125,-0.125 1.125,-0.125 5.4062,-0.53125 2.7188,-0.28125 z M 1768.75,1008 l 0.9688,9.4062 c -0.7314,0.1465 -1.5012,0.2977 -2.4063,0.4376 -1.115,0.1723 -2.2211,0.3239 -3.3125,0.4374 -1.5461,0.1607 -3.0595,0.2376 -4.5938,0.2188 -0.022,0 -0.04,0 -0.062,0 -1.0998,-0.074 -2.0786,-0.3279 -3,-0.6562 -0.4628,-0.2021 -0.7366,-0.3981 -1.0938,-0.8126 -0.033,-0.056 -0.4541,-0.6942 -0.625,-2.3437 -0.082,-0.7872 -0.011,-1.3241 0.094,-1.75 0.012,-0.05 0.058,-0.2036 0.125,-0.375 0.1831,-0.4715 0.3846,-0.7993 1.0624,-1.375 1.4168,-1.2032 4.4027,-2.5572 9.5626,-3.0937 0.9376,-0.097 2.1338,-0.08 3.2812,-0.094 z"
           style="color:#000000;font-style:normal;font-variant:normal;font-weight:normal;font-stretch:normal;font-size:medium;line-height:normal;font-family:Sans;-inkscape-font-specification:Sans;text-indent:0;text-align:start;text-decoration:none;text-decoration-line:none;letter-spacing:normal;word-spacing:normal;text-transform:none;writing-mode:lr-tb;direction:ltr;baseline-shift:baseline;text-anchor:start;display:inline;overflow:visible;visibility:visible;fill:#fefbf6;fill-opacity:1;fill-rule:nonzero;stroke:none;stroke-width:16;marker:none;enable-background:accumulate" />
        <path
           style="color:#000000;font-style:normal;font-variant:normal;font-weight:normal;font-stretch:normal;font-size:medium;line-height:normal;font-family:Sans;-inkscape-font-specification:Sans;text-indent:0;text-align:start;text-decoration:none;text-decoration-line:none;letter-spacing:normal;word-spacing:normal;text-transform:none;writing-mode:lr-tb;direction:ltr;baseline-shift:baseline;text-anchor:start;display:inline;overflow:visible;visibility:visible;fill:url(#linearGradient5707);fill-opacity:1;stroke:none;stroke-width:1;marker:none;enable-background:accumulate"
           d="m 1908.9663,924.1815 c -7.3935,0.76883 -12.5867,3.25816 -15.6357,7.48953 -2.9669,4.22299 -4.0614,10.23734 -3.2588,17.98267 l 0.5743,5.54229 -10.704,1.113 c -0.039,0.42056 -0.078,0.96496 -0.093,1.63255 l 0.2041,1.96838 0.1932,1.86467 c 0.1418,0.56833 0.2893,1.07193 0.4141,1.47523 l 10.7041,-1.11286 2.4421,23.56791 c -1.0784,10.03533 -5.3046,22.81203 -15.9124,27.51813 -1.5311,0.7165 -3.3262,1.2945 -5.317,1.6523 -0.018,0 -0.034,0 -0.052,0 -0.7014,0.102 -1.3993,0.1979 -2.0631,0.2668 -1.1501,0.119 -2.2725,0.1412 -3.4397,0.096 -1.0936,-0.1362 -2.1667,-0.4696 -3.1387,-1.0348 -0.8898,-0.5739 -1.6582,-1.4366 -2.3529,-2.5303 -0.6209,-1.1847 -1.0204,-2.7855 -1.2338,-4.8455 l -4.2509,-41.0237 16.9609,-1.76346 c 0.019,-0.21028 0.029,-0.45247 0.029,-0.73598 -5e-4,-0.28338 -0.013,-0.60809 -0.044,-0.93763 0.014,-0.66772 -0.033,-1.31988 -0.1005,-1.9791 -0.068,-0.65909 -0.1493,-1.23396 -0.2913,-1.80216 -0.03,-0.28835 -0.083,-0.57448 -0.1375,-0.82347 -0.055,-0.24886 -0.1109,-0.46071 -0.1732,-0.66262 l -16.961,1.76359 -2.0127,-19.42416 -0.5171,0.0538 -6.8694,8.35816 1.2291,11.86161 -7.9633,0.82804 c -0.662,0.0575 -1.9277,0.21041 -2.7406,0.28495 -1.9447,0.17798 -4.5697,0.58076 -5.8433,0.60744 -0.018,-10e-4 -0.033,0 -0.052,0 -0.2784,0 -1.3077,0.0314 -1.562,0.0575 -0.4107,0.0431 -0.8303,0.0863 -1.241,0.12946 -4.847,0.50413 -8.67,1.98224 -11.4054,4.43198 -2.744,2.36749 -4.7613,5.10977 -6.0884,8.32923 -0.1708,-1.64785 -0.38,-3.4589 -0.6671,-5.42793 -0.2957,-2.05128 -0.6431,-3.7742 -0.9611,-5.24041 -0.6657,-0.0144 -1.2456,0.0249 -1.8205,0.085 -0.5837,-0.0222 -1.2205,-0.0301 -1.8777,0.0379 -0.5751,0.0602 -1.1968,0.19851 -1.8455,0.34902 -0.575,0.0602 -1.2021,0.14647 -1.8508,0.29712 l 3.0164,29.11032 c -0.143,0.6418 -0.2747,1.2938 -0.4737,1.9864 -0.9688,3.3736 -2.5239,7.3718 -4.4842,11.1991 -3.4579,6.7508 -8.3459,12.7193 -12.8927,14.7959 l -3.596,-34.70441 c -0.777,-7.49819 -3.2734,-12.75834 -7.493,-15.81774 -4.2283,-3.14153 -10.3207,-4.31939 -18.2894,-3.49095 -3.2861,0.34171 -6.467,0.95803 -9.5375,1.77693 -3.0791,0.73663 -5.6259,1.54179 -7.6936,2.42293 0.128,1.23605 0.3784,2.52389 0.7699,3.89896 0.4738,1.36669 0.9311,2.39978 1.4187,3.09863 2.0676,-0.88127 4.4565,-1.66996 7.1248,-2.36383 2.6597,-0.77613 5.6362,-1.31896 8.9223,-1.66067 5.0112,-0.52099 8.9103,0.36603 11.7217,2.65558 2.8028,2.20716 4.4921,6.02556 5.0557,11.46383 l 0.3972,3.83304 c -1.4138,-0.02 -3.2268,-0.021 -5.3799,0.035 -2.1618,-0.025 -4.6816,0.1203 -7.639,0.4278 -3.779,0.3929 -7.2476,1.1986 -10.3576,2.4381 -3.0279,1.2309 -5.5821,2.8843 -7.6945,4.9361 -2.0388,1.961 -3.6087,4.3069 -4.6498,7.0803 -0.9677,2.6824 -1.239,5.6979 -0.8974,8.9937 0.7086,6.8391 3.3806,11.5407 8.0505,14.1367 4.752,2.5876 10.9307,3.4708 18.5708,2.6765 0.9243,-0.097 1.8375,-0.2106 2.787,-0.3421 0.9495,-0.1317 1.9589,-0.2927 2.9313,-0.4619 1.945,-0.3388 3.91,-0.7433 5.9339,-1.2452 2.0513,-0.5087 3.8923,-0.9933 5.5969,-1.472 1.3176,-0.368 2.4637,-0.7095 3.6017,-1.0552 8.8177,-1.9591 14.9628,-10.427 19.3123,-18.9187 0.1679,-0.3281 0.3105,-0.6623 0.4722,-0.9915 l 1.9268,18.5953 c 0.5015,0.031 1.2272,-0.024 2.1309,-0.1164 0.9121,-0.013 1.5704,0 1.9811,-0.048 0.4929,-0.051 1.1359,-0.192 1.9488,-0.3598 0.4519,-0.047 0.8354,-0.072 1.1894,-0.1229 0.3539,-0.052 0.6779,-0.1334 0.9201,-0.2004 l -3.3546,-32.3735 c -0.8538,-8.2398 0.1791,-14.34291 3.1802,-18.23637 0.3604,-0.46751 0.75,-0.93293 1.1639,-1.37755 0.016,-0.0157 0.03,-0.0405 0.046,-0.0575 4.426,-4.78349 8.5773,-5.65522 14.4666,-6.16366 5.5099,-0.69073 11.344,-1.28156 16.433,-1.8134 l 4.2885,41.38628 c 0.5891,5.6855 2.4811,9.6209 5.6211,11.8763 3.2135,2.1644 7.1317,3.028 11.8143,2.5411 0.8929,-0.093 1.7479,-0.2167 2.5748,-0.3724 2.5371,-0.4003 4.7928,-0.9805 6.8218,-1.7564 l 0.8059,-0.2931 c 0.014,0 0.036,0 0.052,0 7.0273,-2.9264 12.4412,-9.8249 15.7394,-17.0814 l 1.5835,15.2802 c 0.5013,0.031 1.2271,-0.024 2.1308,-0.1163 0.9122,-0.013 1.5703,-0.013 1.981,-0.048 0.4929,-0.051 1.1359,-0.1919 1.949,-0.3597 0.9035,-0.094 1.5732,-0.185 2.0576,-0.3187 l -5.8128,-56.09678 17.271,-1.79562 12.751,-1.53526 3.0272,29.21385 c 0.6147,5.93271 1.858,10.66621 3.721,14.22041 1.8629,3.5542 4.1208,6.3065 6.8074,8.1927 2.7601,1.7951 5.8838,2.8794 9.3289,3.2708 1.7636,0.1913 3.5667,0.2856 5.4119,0.275 1.8454,-0.013 3.7327,-0.1268 5.6633,-0.327 3.9431,-0.41 7.7491,-1.1342 11.3776,-2.1778 1.619,-0.4221 3.1658,-0.8723 4.6198,-1.318 1.115,-0.3404 2.1496,-0.7032 3.1825,-1.0638 0.3166,-0.1099 0.6519,-0.1967 0.961,-0.3094 0.3294,-0.1204 0.687,-0.2439 1.0074,-0.3665 0.066,-0.027 0.1355,-0.044 0.2015,-0.073 4.8241,-2.1199 7.8092,-7.3046 10.4198,-13.4394 2.8227,-6.63309 5.0408,-14.86033 6.7877,-23.2709 0.1925,-0.9273 0.3673,-1.85251 0.5482,-2.77955 l 2.7051,26.10605 c 0.2988,2.8839 0.9616,5.1881 1.971,6.9155 0.2503,0.4111 0.5242,0.807 0.8011,1.1731 0.2769,0.3662 0.5332,0.691 0.8367,1.0126 0.6068,0.6431 1.2902,1.2092 2.003,1.6765 1.1242,0.6326 2.3223,1.0617 3.5847,1.3026 0.4207,0.08 0.8333,0.1442 1.2731,0.1819 1.7679,0.2326 3.5102,0.2632 5.2355,0.084 1.2322,-0.1281 2.5807,-0.3112 3.9602,-0.6212 1.4617,-0.3185 2.7313,-0.7575 3.8387,-1.2891 3.4772,-1.4679 9.0436,-5.1986 11.2052,-10.9032 l 0.9984,9.6343 c 0.5013,0.031 1.2272,-0.022 2.1309,-0.1164 0.9121,-0.013 1.5702,0 1.9809,-0.048 0.493,-0.051 1.1359,-0.1919 1.949,-0.3597 0.4518,-0.047 0.8354,-0.072 1.1893,-0.1229 0.3539,-0.052 0.6778,-0.1334 0.92,-0.2004 l -3.3545,-32.37353 c -0.8539,-8.23979 0.1791,-14.3429 3.1802,-18.23636 3.001,-3.89319 7.3109,-6.1003 12.8971,-6.68116 0.4107,-0.0426 0.809,-0.0842 1.1376,-0.11835 0.4107,-0.0426 0.9479,-0.077 1.6138,-0.0632 1.1424,0.057 4.3362,0.25303 8.2224,0.66342 1.1186,0.11808 3.3435,1.0628 5.3428,1.11988 -0.9363,2.04241 -1.6299,4.24443 -2.1375,6.60966 -0.124,0.41755 -0.2449,0.85263 -0.3312,1.34328 -0.7319,4.1571 -0.8946,8.51794 -0.4164,13.13221 0.4781,4.61428 1.5369,8.90045 3.1053,12.81836 1.5686,3.91792 3.6529,7.25011 6.2606,9.97735 2.6898,2.71864 5.8605,4.76204 9.5724,6.12504 0.4628,0.16 0.9243,0.2987 1.4035,0.43 0.9582,0.2627 1.971,0.4816 2.9924,0.6312 1.532,0.2246 3.1174,0.3105 4.7861,0.2877 1.1125,-0.014 2.2583,-0.077 3.4289,-0.1994 1.1707,-0.1216 2.3131,-0.297 3.3968,-0.5101 3.2511,-0.6398 6.0948,-1.6882 8.5545,-3.1932 2.5149,-1.5732 4.6207,-3.43981 6.3676,-5.63586 0.5822,-0.73193 1.1432,-1.51577 1.6415,-2.31714 1.9685,-3.11393 2.0438,-2.57999 2.4341,-4.75577 0.043,-0.12816 0.1162,-0.30156 0.164,-0.43586 2.4994,-7.00753 12.1176,-22.81193 18.6089,-36.80366 l 4.718,45.53004 c 2.3034,0.59345 5.1925,1.04513 8.7112,1.34564 0.8817,0.0955 1.7901,0.14686 2.6854,0.19198 1.7909,0.0902 3.6037,0.11246 5.4369,0.0131 0.9168,-0.051 1.8219,-0.13718 2.746,-0.23316 0.8644,-0.0902 1.7199,-0.21224 2.5749,-0.37244 10.0146,-1.49145 17.4846,-5.32659 22.4228,-11.59839 0.8174,-1.03807 1.5561,-2.13341 2.2225,-3.26772 0.061,-0.0758 0.1253,-0.153 0.1854,-0.22859 4.3132,-5.47606 12.5012,-19.67079 18.8164,-29.75729 -0.091,2.28672 -0.043,4.62759 0.2075,7.04645 0.4782,4.61428 1.5368,8.90045 3.1054,12.81836 1.5684,3.91792 3.6529,7.25011 6.2605,9.97735 2.6898,2.71861 5.8606,4.76205 9.5724,6.12508 2.3145,0.80045 4.8565,1.26234 7.5629,1.36029 1.6239,0.0588 3.2921,-0.0275 5.0481,-0.21081 4.6826,-0.48686 8.6717,-1.69663 11.9512,-3.70332 3.3532,-2.09757 6.0162,-4.74753 8.0091,-7.95313 0.8026,-1.24312 1.4468,-2.59647 2.0438,-3.98213 0.013,-0.0209 0.033,-0.0366 0.046,-0.0575 7.329,-11.34338 22.2884,-23.08335 22.7123,-30.99993 l 2.6354,25.43259 c 0.2945,2.84272 0.9218,5.26461 1.8481,7.2424 0.2316,0.49444 0.4475,0.95018 0.719,1.39114 0.543,0.88193 1.1567,1.65021 1.8608,2.31963 0.3519,0.33478 0.7489,0.64653 1.1415,0.92848 1.6068,1.08213 3.3779,1.84584 5.3574,2.27019 0.4949,0.10593 1.0248,0.19394 1.5426,0.25841 0.5178,0.0641 1.0376,0.0745 1.5781,0.0981 0.5405,0.0222 1.1132,0.0536 1.6761,0.0353 0.5631,-0.0183 1.1265,-0.0641 1.7118,-0.12554 3.9433,-0.40997 7.339,-1.20806 10.2025,-2.42202 -0.5026,-2.44621 -1.1632,-4.72922 -1.9602,-6.81189 -2.0592,0.96379 -4.5046,1.62026 -7.3799,1.91921 -1.1501,0.119 -2.3243,0.14646 -3.4914,0.10069 -1.0936,-0.13613 -2.1151,-0.47509 -3.087,-1.04029 -0.8899,-0.57382 -1.7101,-1.43103 -2.4046,-2.5248 -0.6211,-1.1848 -1.0204,-2.78557 -1.2339,-4.84561 l -4.2509,-41.02365 17.0126,-1.76884 c 0.02,-0.21024 0.042,-0.45382 0.029,-0.73593 -0.014,-0.28202 -0.063,-0.60271 -0.097,-0.93233 0.014,-0.66767 -0.033,-1.31982 -0.1005,-1.97908 -0.068,-0.6591 -0.1495,-1.23386 -0.2912,-1.80215 -0.06,-0.57672 -0.1344,-1.08787 -0.2592,-1.49138 l -17.0127,1.76884 -2.0126,-19.4241 -0.5172,0.0537 -6.8177,8.35277 1.2291,11.86166 -10.7556,1.11831 c -0.039,0.42061 -0.081,0.94375 -0.1031,1.529 l 0.1877,1.81292 0.204,1.9683 c 0.1504,0.65072 0.3054,1.22726 0.4303,1.63063 l 10.7557,-1.11829 0.161,1.55393 c -0.7703,5.55117 -7.1652,20.54622 -18.3809,31.43974 0.029,-1.0161 0.034,-2.04932 -0.013,-3.08837 -0.037,-1.04409 -0.1136,-2.10685 -0.2241,-3.1704 -0.1201,-1.15356 -0.2638,-2.30116 -0.4575,-3.40788 -0.5814,-3.3202 -1.5079,-6.41589 -2.7458,-9.34796 -1.5685,-3.91787 -3.6743,-7.24783 -6.3641,-9.96653 -2.2816,-2.3862 -4.9767,-4.21053 -8.0955,-5.49331 -0.4456,-0.18326 -0.8996,-0.37886 -1.3626,-0.53896 -0.9074,-0.3429 -1.8334,-0.6338 -2.8069,-0.85997 -0.9737,-0.22615 -1.9939,-0.41248 -3.0335,-0.52231 -2.0789,-0.21966 -4.2903,-0.18224 -6.6316,0.0613 -4.6825,0.48694 -8.7371,1.77728 -12.0902,3.87485 -1.0283,0.61638 -1.9702,1.29591 -2.8738,2.02653 -0.065,0.037 -0.1873,0.0963 -0.2478,0.13051 -0.1573,0.14949 -0.317,0.31578 -0.4742,0.46815 -0.8705,0.76086 -1.6611,1.57703 -2.4118,2.44969 -0.1433,0.15231 -0.2792,0.30817 -0.4224,0.46276 -7.2504,7.82857 -14.411,18.5959 -21.0502,31.40315 0,-0.43966 0.035,-0.86388 0.021,-1.31112 -2e-4,-0.11508 -0.037,-0.2533 -0.038,-0.36263 -0.013,-1.04159 -0.048,-1.9736 -0.2206,-3.64185 -0.5636,-5.43824 -1.6931,-9.99319 -3.4088,-13.72929 -1.6336,-3.74453 -3.7133,-6.82251 -6.2782,-9.13776 -2.4828,-2.32365 -5.421,-3.87234 -8.7444,-4.69287 -3.332,-0.90276 -6.9328,-1.16392 -10.7938,-0.76254 -5.1755,0.53818 -9.2722,2.04475 -12.3362,4.52869 -2.2429,1.79482 -4.0375,3.71363 -5.4152,5.74624 -0.4593,0.67754 -0.8863,1.36302 -1.2494,2.06704 l -3.7892,-36.5691 c -0.2508,-0.0162 -0.5457,-0.0322 -0.8899,-0.0118 -0.3441,0.0207 -0.7376,0.0766 -1.1893,0.12358 -0.9119,0.0118 -1.6217,0.0118 -2.0324,0.0541 -0.4929,0.0514 -1.1572,0.19418 -2.0524,0.37043 -0.8214,0.0855 -1.4698,0.17438 -1.9542,0.30791 l 2.1631,20.87445 c -0.7123,12.89984 -7.6005,25.42475 -14.4663,37.94364 -0.5659,-3.70201 -1.5418,-7.1502 -2.9047,-10.37855 -1.5686,-3.91787 -3.6744,-7.24783 -6.3641,-9.96652 -1.3038,-1.36354 -2.7675,-2.57274 -4.3431,-3.57982 -0.394,-0.25175 -0.7608,-0.48675 -1.1719,-0.71585 -1.2331,-0.68725 -2.5544,-1.25632 -3.9431,-1.73659 -0.9075,-0.3429 -1.8335,-0.63381 -2.8071,-0.85997 -0.9735,-0.22617 -1.9938,-0.41248 -3.0333,-0.52231 -2.0789,-0.21967 -4.2903,-0.18224 -6.6316,0.0613 -2.3413,0.24347 -4.5364,0.6641 -6.5544,1.30976 -1.009,0.32283 -1.9886,0.71704 -2.9134,1.14059 -0.9248,0.42353 -1.7842,0.90008 -2.6225,1.4245 -0.5855,0.35101 -1.1254,0.72254 -1.6615,1.11516 -0.3829,0.27253 -0.7512,0.55807 -1.1142,0.84882 -0.06,0.0481 -0.1365,0.0765 -0.1961,0.12502 -1.8478,1.47227 -6.0104,1.51543 -8.0863,1.15488 -2.4059,-0.41788 -9.1637,-1.51667 -13.048,-1.83705 -0.5834,-0.0226 -1.1209,0.0118 -1.6137,0.0632 -0.4109,0.0429 -0.8303,0.0864 -1.241,0.12908 -4.847,0.504 -8.67,1.98211 -11.4055,4.4319 -2.744,2.36748 -4.7614,5.10982 -6.0884,8.32931 -0.1709,-1.64791 -0.3801,-3.45892 -0.667,-5.428 -0.2957,-2.05134 -0.6432,-3.7742 -0.9611,-5.24035 -0.6658,-0.0141 -1.2456,0.0249 -1.8207,0.0846 -0.5835,-0.0226 -1.2204,-0.0302 -1.8776,0.0382 -0.575,0.0599 -1.1968,0.19843 -1.8454,0.34894 -0.5751,0.0599 -1.2023,0.14645 -1.851,0.29714 l 3.7357,36.05117 0.569,5.49044 c -0.033,4.70712 -1.9256,11.0591 -11.8827,16.4711 -0.6401,0.233 -1.4651,0.4569 -2.4337,0.7242 -0.9773,0.1849 -1.8727,0.3518 -2.7763,0.4456 -0.7395,0.077 -1.5861,0.091 -2.4982,0.1034 -0.9208,-0.071 -1.7935,-0.3085 -2.584,-0.7261 -0.7992,-0.4999 -1.5175,-1.294 -2.1299,-2.3962 -0.6211,-1.1848 -1.028,-2.8586 -1.2501,-5.001 l -6.328,-61.06937 -1.5726,-15.17671 c -0.2508,-0.0162 -0.5457,-0.0322 -0.8898,-0.0118 -0.344,0.0207 -0.7375,0.0766 -1.1894,0.12358 -0.9121,0.0118 -1.5704,0.007 -1.9811,0.0489 -0.4928,0.0514 -1.2089,0.19963 -2.1039,0.37582 -0.8216,0.0855 -1.47,0.17436 -1.9544,0.3079 l 2.4423,23.56792 c -0.6675,7.89986 -2.0519,19.1658 -4.2748,29.86828 -1.6917,8.1451 -3.8758,16.0441 -6.3993,21.9742 -1.5772,3.70618 -3.3977,6.47798 -4.9562,8.15918 l -5.5444,-53.50692 c -0.2508,-0.0162 -0.5457,-0.0322 -0.8898,-0.0118 -0.3441,0.0207 -0.7376,0.0766 -1.1893,0.12358 -0.8302,0.004 -1.4883,-0.003 -1.9811,0.0489 -0.4109,0.0429 -1.0538,0.18346 -1.9489,0.3597 -0.9038,0.094 -1.6251,0.19034 -2.1094,0.32403 l 5.7753,55.73421 c -1.5919,0.6652 -3.4576,1.2829 -5.5594,1.8346 -2.1103,0.4692 -4.4908,0.8334 -7.2018,1.1152 -3.204,0.3331 -6.1203,0.3293 -8.7268,0.018 -2.615,-0.3944 -4.8895,-1.26 -6.8589,-2.6375 -1.896,-1.4687 -3.4801,-3.5604 -4.6741,-6.268 -1.2025,-2.7899 -2.0213,-6.39174 -2.4823,-10.84125 l -3.6767,-35.48138 c -0.2507,-0.0162 -0.5456,-0.0322 -0.8897,-0.0118 -0.3441,0.0207 -0.7376,0.0766 -1.1893,0.12358 -0.8302,0.004 -1.4883,-0.003 -1.9811,0.0489 -0.4109,0.0429 -1.1055,0.18892 -2.0007,0.36507 -0.6908,0.0718 -1.2101,0.13593 -1.6493,0.22386 l -30.4572,3.16662 -0.5314,-5.1279 c -0.35,-3.37823 -0.3327,-6.17678 0.02,-8.379 0.1084,-0.55265 0.221,-1.0597 0.3615,-1.55588 0.4212,-1.4886 0.9974,-2.737 1.7088,-3.68551 1.0221,-1.35546 2.3358,-2.28708 3.9362,-2.86999 0.7958,-0.33255 1.6422,-0.61278 2.5781,-0.84396 0.468,-0.11547 0.982,-0.22464 1.4836,-0.3113 0.5014,-0.0868 1.0119,-0.15757 1.5458,-0.2131 1.3967,-0.14523 2.7097,-0.16485 3.9676,-0.0462 1.2494,0.0369 2.2447,0.12358 3.0012,0.21154 0.209,-1.18764 0.381,-2.28615 0.4428,-3.2921 0.144,-1.01433 0.1695,-2.30944 0.1717,-3.89218 -1.0115,-0.14462 -2.2401,-0.22868 -3.7358,-0.23983 -1.4222,-0.10188 -3.0181,-0.0526 -4.7432,0.12658 z m 191.7992,14.92705 c 6.572,-0.68326 11.6656,1.08645 15.3477,5.36755 3.7642,4.27267 6.0434,10.40277 6.8716,18.3954 0.3105,2.99715 0.3844,5.78834 0.1865,8.35748 -0.013,0.0902 -0.018,0.17432 -0.025,0.26429 -0.7587,2.87384 -1.2867,5.18548 -1.1872,6.19674 0,0.0144 0,0.0379 0,0.0523 -0.4998,1.62889 -1.1453,3.15604 -1.9332,4.54653 -2.7258,4.94735 -7.3427,7.77908 -13.9147,8.46236 -6.572,0.68342 -11.7441,-1.13052 -15.5082,-5.40322 -1.3808,-1.60535 -2.5794,-3.47185 -3.5593,-5.59846 -0.3268,-0.70878 -0.6264,-1.44241 -0.9085,-2.20912 -1.1283,-3.06738 -1.8862,-6.60213 -2.3003,-10.59851 -0.1032,-0.9991 -0.201,-1.95465 -0.249,-2.90601 -0.3353,-6.65967 0.7137,-12.17104 3.0987,-16.5001 2.8079,-4.95588 7.5032,-7.74338 14.0753,-8.42674 z m 143.4435,-14.91419 c 6.5721,-0.68326 11.6656,1.08646 15.3478,5.36756 3.7641,4.27267 6.0433,10.40281 6.8715,18.39537 0.8281,7.9926 -0.1456,14.46096 -2.9534,19.41694 -2.7258,4.94735 -7.3426,7.77907 -13.9147,8.46236 -6.5721,0.68328 -11.7441,-1.13066 -15.5083,-5.40322 -1.3808,-1.60549 -2.5794,-3.47199 -3.5593,-5.59847 -0.3266,-0.70891 -0.6264,-1.44241 -0.9085,-2.20925 -1.1282,-3.06725 -1.8862,-6.60213 -2.3003,-10.59838 -0.1807,-1.74395 -0.244,-3.40268 -0.2566,-4.99949 0,-0.23777 -0.025,-0.49599 -0.023,-0.73053 0,-0.071 -0.022,-0.13653 -0.021,-0.20718 0.013,-0.60422 0.048,-1.15347 0.081,-1.73622 0.016,-0.30071 0.041,-0.60169 0.064,-0.89668 0.013,-0.10658 0.013,-0.21021 0.02,-0.31616 0.069,-0.78302 0.1693,-1.53879 0.2864,-2.28106 0,-0.0162 -0.013,-0.0356 -0.013,-0.0518 0.013,-0.0162 -0.013,-0.0356 0,-0.0518 0.025,-0.0751 0.013,-0.13977 0.03,-0.21257 0.2549,-0.80743 0.4446,-1.49737 0.4628,-2.08999 0,-0.0322 -0.013,-0.0721 -0.013,-0.10357 0.1491,-0.60061 0.3128,-1.15601 0.5005,-1.72742 0.1379,-0.42802 0.2875,-0.83954 0.4453,-1.25047 0.094,-0.23893 0.1923,-0.47788 0.2922,-0.71102 0.025,-0.0574 0.063,-0.10906 0.088,-0.16607 0.2775,-0.64215 0.574,-1.2762 0.9035,-1.87402 2.8078,-4.95589 7.503,-7.74336 14.0752,-8.42672 z m -69.5802,7.44386 c 6.3256,-0.65766 11.0852,1.06109 14.3223,5.05532 3.3192,3.9858 5.3452,9.71857 6.1223,17.21671 0.495,4.77918 0.2469,8.93706 -0.791,12.54295 -0.9644,3.51501 -2.485,6.54355 -4.5548,9.00755 -1.9875,2.45537 -4.4213,4.35077 -7.35,5.73799 -2.8464,1.3786 -5.9588,2.24247 -9.2448,2.58418 -2.3824,0.24768 -4.65,0.36681 -6.8116,0.34171 -2.0879,-0.11639 -4.0929,-0.42645 -6.0506,-0.88925 l -3.0217,-29.16206 c -0.4099,-3.95502 -0.1149,-7.24894 0.8525,-9.93143 1.0411,-2.77335 2.4269,-5.05725 4.1542,-6.81934 1.8093,-1.7705 3.8365,-3.0833 6.0685,-3.98172 2.2319,-0.89828 4.333,-1.49757 6.3047,-1.70261 z M 1764.6344,1000.13 c 1.8895,-0.1964 3.8586,-0.2321 5.938,-0.1986 2.1529,-0.058 3.9607,-0.1072 5.3743,-0.088 l 2.4476,23.6197 c -1.0466,0.3171 -2.0794,0.6267 -3.1471,0.9031 -1.0676,0.2764 -2.1702,0.5197 -3.2665,0.7584 -1.0962,0.2391 -2.2425,0.4346 -3.4376,0.6192 -1.1952,0.1848 -2.4391,0.3584 -3.7125,0.4908 -1.9715,0.205 -3.9353,0.2926 -5.9324,0.2503 -2.0058,-0.1242 -3.8837,-0.5435 -5.612,-1.1965 -1.737,-0.7356 -3.1866,-1.8249 -4.4253,-3.3619 -1.1565,-1.5454 -1.8995,-3.7033 -2.1812,-6.4224 -0.1663,-1.6068 -0.07,-3.0989 0.2677,-4.478 0.1136,-0.4598 0.2658,-0.9198 0.4346,-1.3542 0.675,-1.7373 1.7755,-3.2593 3.3401,-4.588 3.1291,-2.6574 7.751,-4.3137 13.9123,-4.9544 z"
           id="path5681" />
      </g>
      <path
         id="path5685"
         d="m -1037.1851,425.1472 c -4.4515,-0.182 -13.6319,5.2094 -22.4453,13.1816 -10.8365,9.8024 -17.7298,19.4832 -15.0564,22.4355 0.9088,0.9962 2.8278,1.0416 5.5391,0.1309 l 28.9431,32.3516 c -1.137,2.5202 -1.3749,4.4733 -0.4356,5.5117 2.6716,2.9533 13.6201,-2.5991 24.4551,-12.4004 10.8351,-9.8013 17.4528,-20.1404 14.7813,-23.0938 -0.8947,-0.989 -2.7201,-0.997 -5.1563,-0.2382 l -28.8848,-31.9356 c 1.0299,-2.4215 1.1229,-4.2028 0.2696,-5.1601 -0.4376,-0.4833 -1.1137,-0.7468 -2.0098,-0.7832 z"
         style="fill:#f7c833;fill-opacity:1;fill-rule:evenodd;stroke:none" />
      <ellipse
         ry="7.2107887"
         rx="26.454468"
         cy="-380.02002"
         cx="-1079.2362"
         style="fill:#fefbf6;fill-opacity:1;fill-rule:evenodd;stroke:none"
         id="ellipse5687"
         transform="rotate(-42.132257)" />
      <path
         style="fill:#fefbf6;fill-opacity:1;stroke:none"
         d="m -1037.5902,427.77479 -31.8625,32.19167 28.748,31.78015 c -1.1369,2.5202 -1.3749,4.47317 -0.4356,5.51159 2.6716,2.95334 13.6209,-2.59802 24.4559,-12.39932 10.8351,-9.80131 17.45288,-20.14099 14.7813,-23.09434 -0.8947,-0.98906 -2.7206,-0.99825 -5.1568,-0.23946 z"
         id="path5689" />
      <path
         style="fill:#ffffff;fill-opacity:1;fill-rule:evenodd;stroke:#f7ca3b;stroke-width:0.6981228;stroke-opacity:1"
         d="m -1035.5291,429.88477 c -1.911,4.66926 -7.6142,11.02435 -14.9275,17.63991 -6.7564,6.1118 -13.8806,11.21041 -18.691,12.98547"
         id="path5691" />
      <path
         id="path5693"
         d="m -1007.5862,462.02456 c 2.2667,2.50571 -3.348,11.27812 -12.5408,19.59385 -9.1928,8.31573 -18.4824,13.02564 -20.7491,10.51994"
         style="fill:#ffffff;fill-opacity:1;fill-rule:evenodd;stroke:#ffcc00;stroke-width:0.69812268" />
      <path
         id="path5697"
         d="m -1063.5267,466.25206 c -2.4131,1.6972 -0.3576,6.3943 2.7408,5.29323 7.9773,-2.38432 15.7644,-6.99605 22.6999,-11.92632 5.9657,-4.24083 12.9403,-9.47145 16.0023,-14.99726 2.5995,-4.12597 8.2777,2.63621 4.7787,5.07292"
         style="opacity:0.98999999;fill:none;stroke:#057edc;stroke-width:4.0815444;stroke-linecap:butt;stroke-linejoin:miter;stroke-miterlimit:4;stroke-dasharray:none;stroke-opacity:1" />
      <path
         style="fill:#02497f;fill-opacity:1;fill-rule:evenodd;stroke:none"
         d="m -1042.3369,411.57105 c -3.4604,-0.032 -6.0871,11.2852 -3.6791,20.66235 0.3387,1.31883 1.9017,5.52502 2.0862,7.66264 0.9215,10.66904 0.1,45.71522 0.5092,49.02995 l 1.0837,8.77747 0.054,-65.07956 c -1.4886,0 -2.2943,-6.34953 -2.2454,-9.65261 0.042,-2.86121 0.9629,-8.92978 2.1918,-8.30006 z"
         id="path5699" />
      <path
         style="opacity:0.98999999;fill:none;stroke:#027ddc;stroke-width:4.65000582;stroke-linecap:butt;stroke-linejoin:miter;stroke-miterlimit:4;stroke-dasharray:none;stroke-opacity:1"
         d="m -1095.8035,435.74945 c 10.7403,0.37771 21.5554,-1.52866 31.5193,-5.55586 5.7254,-2.3141 11.1712,-5.31717 17.0194,-7.30049 3.3433,-1.13382 6.8902,-1.93232 10.3928,-1.49006 1.7512,0.22113 3.4728,0.75728 4.9877,1.66331 1.5149,0.90603 2.8175,2.18999 3.6539,3.74443 0.8854,1.64544 1.2284,3.577 0.9639,5.42669 -0.2645,1.84969 -1.1353,3.60764 -2.4464,4.93895"
         id="path5701" />
      <path
         style="fill:#02497f;fill-opacity:1;fill-rule:evenodd;stroke:none"
         d="m -1042.3361,411.57105 c 3.4604,-0.032 6.0871,11.2852 3.6791,20.66235 -0.3387,1.31883 -1.9017,5.52502 -2.0862,7.66264 -0.9215,10.66904 -0.1,45.71522 -0.5092,49.02995 l -1.0837,8.77747 -0.054,-65.07956 c 1.4886,0 2.2943,-6.34953 2.2454,-9.65261 -0.042,-2.86121 -0.9629,-8.92978 -2.1918,-8.30006 z"
         id="path5703" />
      <path
         style="fill:#047edc;fill-opacity:1;fill-rule:evenodd;stroke:none;stroke-width:0.79535455px;stroke-linecap:butt;stroke-linejoin:miter;stroke-opacity:1"
         d="m -1072.0387,430.5134 c 5.9565,-1.59283 8.2169,2.56194 -0.049,4.77249 -8.2665,2.21055 -16.6075,3.41494 -22.2052,3.41494 -5.5977,0 -6.866,-2.64425 -6.866,-2.64425 l 6.8724,-3.17097 c 6.735,-0.0688 14.8879,-0.52229 22.2478,-2.37221 z"
         id="path5705" />
      <path
         style="opacity:0.98999999;fill:none;stroke:#087fdc;stroke-width:4.0815444;stroke-linecap:butt;stroke-linejoin:miter;stroke-miterlimit:4;stroke-dasharray:none;stroke-opacity:1"
         d="m -1054.7077,476.00115 c -2.4131,1.69719 -0.3577,6.39429 2.7407,5.29323 7.9774,-2.38433 15.7644,-6.99605 22.6999,-11.92632 5.9657,-4.24084 12.9403,-9.47146 16.0024,-14.99721 2.5995,-4.12598 8.2778,2.63614 4.7788,5.07285"
         id="path5695" />
    </g>
  </g>
</svg>
